<svg width="253" height="147" viewBox="0 0 253 147" fill="none" xmlns="http://www.w3.org/2000/svg">
<path d="M0.16156 144.577C0.16156 145.767 0.740216 146.731 1.45403 146.731C2.16783 146.731 2.74649 145.767 2.74649 144.577C2.74649 143.387 2.16783 142.423 1.45403 142.423C0.740216 142.423 0.16156 143.387 0.16156 144.577ZM250.577 2.82688L253 4.75464V0.0914307L250.577 2.01919V2.82688ZM1.45403 144.981H63.8714V144.173H1.45403V144.981ZM102.888 79.9615V67.0384H102.403V79.9615H102.888ZM141.419 2.82688H250.819V2.01919H141.419V2.82688ZM102.888 67.0384C102.888 31.5754 120.139 2.82688 141.419 2.82688V2.01919C119.871 2.01919 102.403 31.1293 102.403 67.0384H102.888ZM63.8714 144.981C85.4195 144.981 102.888 115.871 102.888 79.9615H102.403C102.403 115.425 85.1515 144.173 63.8714 144.173V144.981Z" fill="#F8AAFF"/>
</svg>
