<svg width="16" height="16" viewBox="0 0 16 16" fill="none" xmlns="http://www.w3.org/2000/svg">
<g clip-path="url(#clip0_42_285)">
<path d="M16 8C16 3.58172 12.4183 0 8 0C3.58172 0 0 3.58172 0 8C0 12.4183 3.58172 16 8 16C12.4183 16 16 12.4183 16 8Z" fill="#AC6AFF"/>
<path fill-rule="evenodd" clip-rule="evenodd" d="M11.8698 5.01946C12.0434 5.19302 12.0434 5.47443 11.8698 5.648L6.98094 10.5369C6.8074 10.7104 6.52596 10.7104 6.3524 10.5369L4.13017 8.31469C3.95661 8.14109 3.95661 7.85969 4.13017 7.68609C4.30374 7.51256 4.58515 7.51256 4.75872 7.68609L6.66667 9.59409L11.2413 5.01946C11.4149 4.84589 11.6963 4.84589 11.8698 5.01946Z" fill="#0E0C15"/>
</g>
<rect x="0.5" y="0.5" width="15" height="15" stroke="black"/>
<defs>
<clipPath id="clip0_42_285">
<rect width="16" height="16" fill="white"/>
</clipPath>
</defs>
</svg>
