<svg width="33" height="28" viewBox="0 0 33 28" fill="none" xmlns="http://www.w3.org/2000/svg">
<g filter="url(#filter0_i_42_217)">
<path d="M4.81794 25.048C3.81527 25.048 2.9726 24.8987 2.28994 24.6C1.61794 24.2907 1.10594 23.8587 0.753938 23.304C0.412604 22.7387 0.241938 22.072 0.241938 21.304H2.28994C2.28994 21.6347 2.37527 21.9493 2.54594 22.248C2.7166 22.5467 2.98327 22.792 3.34594 22.984C3.71927 23.1653 4.20994 23.256 4.81794 23.256C5.61794 23.256 6.22594 23.1013 6.64194 22.792C7.05794 22.4827 7.26594 22.0987 7.26594 21.64C7.26594 21.224 7.0846 20.8773 6.72194 20.6C6.36994 20.3227 5.8206 20.152 5.07394 20.088L4.17794 20.008C3.07927 19.9013 2.2046 19.5707 1.55394 19.016C0.903271 18.4507 0.577938 17.6507 0.577938 16.616C0.577938 15.9013 0.737938 15.2987 1.05794 14.808C1.3886 14.3173 1.85794 13.9493 2.46594 13.704C3.0846 13.448 3.81527 13.32 4.65794 13.32C5.5326 13.32 6.27394 13.464 6.88194 13.752C7.5006 14.04 7.96994 14.456 8.28994 15C8.6206 15.5333 8.78594 16.184 8.78594 16.952H6.73794C6.73794 16.6213 6.65794 16.3173 6.49794 16.04C6.3486 15.7627 6.11927 15.5387 5.80994 15.368C5.51127 15.1973 5.12727 15.112 4.65794 15.112C4.23127 15.112 3.8686 15.176 3.56994 15.304C3.27127 15.432 3.04194 15.608 2.88194 15.832C2.72194 16.056 2.64194 16.3173 2.64194 16.616C2.64194 16.9893 2.77527 17.32 3.04194 17.608C3.31927 17.896 3.76194 18.0667 4.36994 18.12L5.26594 18.2C6.4926 18.3067 7.47394 18.648 8.20994 19.224C8.9566 19.8 9.32994 20.6053 9.32994 21.64C9.32994 22.3547 9.1486 22.968 8.78594 23.48C8.43394 23.9813 7.92194 24.3707 7.24994 24.648C6.57794 24.9147 5.76727 25.048 4.81794 25.048ZM3.84194 27.064V24.728H5.69794V27.064H3.84194ZM3.77794 14.104V11.768H5.63394V14.104H3.77794ZM22.2318 25.608C20.3758 25.608 18.7865 25.3093 17.4638 24.712C16.1411 24.0933 15.0638 23.2613 14.2318 22.216C13.4211 21.1707 12.8131 19.9653 12.4078 18.6C12.0238 17.2133 11.8318 15.752 11.8318 14.216V12.392C11.8318 10.2587 12.2051 8.328 12.9518 6.6C13.6985 4.872 14.8398 3.496 16.3758 2.472C17.9118 1.448 19.8638 0.935999 22.2318 0.935999C24.5998 0.935999 26.5411 1.448 28.0558 2.472C29.5918 3.496 30.7331 4.872 31.4798 6.6C32.2265 8.328 32.5998 10.2587 32.5998 12.392V14.216C32.5998 15.752 32.3971 17.2133 31.9918 18.6C31.6078 19.9653 30.9998 21.1707 30.1678 22.216C29.3571 23.2613 28.2905 24.0933 26.9678 24.712C25.6665 25.3093 24.0878 25.608 22.2318 25.608ZM22.2318 20.776C23.9598 20.776 25.2398 20.1787 26.0718 18.984C26.9251 17.768 27.3518 15.8907 27.3518 13.352C27.3518 10.664 26.9145 8.73333 26.0398 7.56C25.1865 6.36533 23.9171 5.768 22.2318 5.768C20.5038 5.768 19.2131 6.36533 18.3598 7.56C17.5065 8.73333 17.0798 10.6427 17.0798 13.288C17.0798 15.848 17.4958 17.736 18.3278 18.952C19.1811 20.168 20.4825 20.776 22.2318 20.776Z" fill="white"/>
</g>
<defs>
<filter id="filter0_i_42_217" x="0.241943" y="0.936035" width="32.3579" height="30.1279" filterUnits="userSpaceOnUse" color-interpolation-filters="sRGB">
<feFlood flood-opacity="0" result="BackgroundImageFix"/>
<feBlend mode="normal" in="SourceGraphic" in2="BackgroundImageFix" result="shape"/>
<feColorMatrix in="SourceAlpha" type="matrix" values="0 0 0 0 0 0 0 0 0 0 0 0 0 0 0 0 0 0 127 0" result="hardAlpha"/>
<feOffset dy="4"/>
<feGaussianBlur stdDeviation="2"/>
<feComposite in2="hardAlpha" operator="arithmetic" k2="-1" k3="1"/>
<feColorMatrix type="matrix" values="0 0 0 0 0 0 0 0 0 0 0 0 0 0 0 0 0 0 0.25 0"/>
<feBlend mode="normal" in2="shape" result="effect1_innerShadow_42_217"/>
</filter>
</defs>
</svg>
