<svg width="83" height="28" viewBox="0 0 83 28" fill="none" xmlns="http://www.w3.org/2000/svg">
<g filter="url(#filter0_i_42_312)">
<path d="M4.92731 25.048C3.92465 25.048 3.08198 24.8987 2.39931 24.6C1.72731 24.2907 1.21531 23.8587 0.863313 23.304C0.521979 22.7387 0.351313 22.072 0.351313 21.304H2.39931C2.39931 21.6347 2.48465 21.9493 2.65531 22.248C2.82598 22.5467 3.09265 22.792 3.45531 22.984C3.82865 23.1653 4.31931 23.256 4.92731 23.256C5.72731 23.256 6.33531 23.1013 6.75131 22.792C7.16731 22.4827 7.37531 22.0987 7.37531 21.64C7.37531 21.224 7.19398 20.8773 6.83131 20.6C6.47931 20.3227 5.92998 20.152 5.18331 20.088L4.28731 20.008C3.18865 19.9013 2.31398 19.5707 1.66331 19.016C1.01265 18.4507 0.687313 17.6507 0.687313 16.616C0.687313 15.9013 0.847313 15.2987 1.16731 14.808C1.49798 14.3173 1.96731 13.9493 2.57531 13.704C3.19398 13.448 3.92465 13.32 4.76731 13.32C5.64198 13.32 6.38331 13.464 6.99131 13.752C7.60998 14.04 8.07931 14.456 8.39931 15C8.72998 15.5333 8.89531 16.184 8.89531 16.952H6.84731C6.84731 16.6213 6.76731 16.3173 6.60731 16.04C6.45798 15.7627 6.22865 15.5387 5.91931 15.368C5.62065 15.1973 5.23665 15.112 4.76731 15.112C4.34065 15.112 3.97798 15.176 3.67931 15.304C3.38065 15.432 3.15131 15.608 2.99131 15.832C2.83131 16.056 2.75131 16.3173 2.75131 16.616C2.75131 16.9893 2.88465 17.32 3.15131 17.608C3.42865 17.896 3.87131 18.0667 4.47931 18.12L5.37531 18.2C6.60198 18.3067 7.58331 18.648 8.31931 19.224C9.06598 19.8 9.43931 20.6053 9.43931 21.64C9.43931 22.3547 9.25798 22.968 8.89531 23.48C8.54331 23.9813 8.03131 24.3707 7.35931 24.648C6.68731 24.9147 5.87665 25.048 4.92731 25.048ZM3.95131 27.064V24.728H5.80731V27.064H3.95131ZM3.88731 14.104V11.768H5.74331V14.104H3.88731ZM11.1732 20.52V15.048L20.0372 0.967999L24.1012 3.624L16.5172 15.688L16.9652 16.36H30.9492V20.52H11.1732ZM23.4292 25V8.168H28.2612V25H23.4292ZM33.1532 25V19.272H38.7852V25H33.1532ZM50.8632 0.967999C52.5912 0.967999 54.0739 1.256 55.3112 1.832C56.5485 2.38667 57.5512 3.18667 58.3192 4.232C59.1085 5.256 59.6845 6.44 60.0472 7.784C60.4312 9.128 60.6232 10.568 60.6232 12.104V13.448C60.6232 17.3307 59.6312 20.264 57.6472 22.248C55.6632 24.2107 52.7405 25.192 48.8792 25.192C48.0899 25.192 47.3112 25.1707 46.5432 25.128C45.7752 25.0853 45.0285 25.0213 44.3032 24.936V20.552C45.0072 20.616 45.7645 20.68 46.5752 20.744C47.3859 20.7867 48.2179 20.808 49.0712 20.808C50.7779 20.808 52.1219 20.5307 53.1032 19.976C54.0845 19.4 54.7779 18.5467 55.1832 17.416C55.5885 16.2853 55.7912 14.888 55.7912 13.224V10.792L56.9432 10.024C56.9219 11.624 56.5912 12.968 55.9512 14.056C55.3325 15.1227 54.4685 15.9227 53.3592 16.456C52.2499 16.9893 50.9699 17.256 49.5192 17.256C47.8765 17.256 46.4579 16.936 45.2632 16.296C44.0685 15.6347 43.1512 14.7173 42.5112 13.544C41.8712 12.3707 41.5512 10.984 41.5512 9.384C41.5512 7.69867 41.9352 6.22667 42.7032 4.968C43.4712 3.688 44.5485 2.70667 45.9352 2.024C47.3432 1.32 48.9859 0.967999 50.8632 0.967999ZM51.0232 5.32C50.0845 5.32 49.2845 5.49067 48.6232 5.832C47.9832 6.17333 47.4819 6.64267 47.1192 7.24C46.7779 7.816 46.6072 8.49867 46.6072 9.288C46.6072 10.0987 46.7779 10.8027 47.1192 11.4C47.4605 11.976 47.9405 12.4347 48.5592 12.776C49.1992 13.096 49.9779 13.256 50.8952 13.256C51.7272 13.256 52.4845 13.1173 53.1672 12.84C53.8712 12.5413 54.4259 12.104 54.8312 11.528C55.2365 10.9307 55.4392 10.184 55.4392 9.288C55.4392 8.52 55.2685 7.83733 54.9272 7.24C54.6072 6.64267 54.1165 6.17333 53.4552 5.832C52.7939 5.49067 51.9832 5.32 51.0232 5.32ZM72.8319 0.967999C74.5599 0.967999 76.0426 1.256 77.2799 1.832C78.5173 2.38667 79.5199 3.18667 80.2879 4.232C81.0773 5.256 81.6533 6.44 82.0159 7.784C82.3999 9.128 82.5919 10.568 82.5919 12.104V13.448C82.5919 17.3307 81.5999 20.264 79.6159 22.248C77.6319 24.2107 74.7093 25.192 70.8479 25.192C70.0586 25.192 69.2799 25.1707 68.5119 25.128C67.7439 25.0853 66.9973 25.0213 66.2719 24.936V20.552C66.9759 20.616 67.7333 20.68 68.5439 20.744C69.3546 20.7867 70.1866 20.808 71.0399 20.808C72.7466 20.808 74.0906 20.5307 75.0719 19.976C76.0533 19.4 76.7466 18.5467 77.1519 17.416C77.5573 16.2853 77.7599 14.888 77.7599 13.224V10.792L78.9119 10.024C78.8906 11.624 78.5599 12.968 77.9199 14.056C77.3013 15.1227 76.4373 15.9227 75.3279 16.456C74.2186 16.9893 72.9386 17.256 71.4879 17.256C69.8453 17.256 68.4266 16.936 67.2319 16.296C66.0373 15.6347 65.1199 14.7173 64.4799 13.544C63.8399 12.3707 63.5199 10.984 63.5199 9.384C63.5199 7.69867 63.9039 6.22667 64.6719 4.968C65.4399 3.688 66.5173 2.70667 67.9039 2.024C69.3119 1.32 70.9546 0.967999 72.8319 0.967999ZM72.9919 5.32C72.0533 5.32 71.2533 5.49067 70.5919 5.832C69.9519 6.17333 69.4506 6.64267 69.0879 7.24C68.7466 7.816 68.5759 8.49867 68.5759 9.288C68.5759 10.0987 68.7466 10.8027 69.0879 11.4C69.4293 11.976 69.9093 12.4347 70.5279 12.776C71.1679 13.096 71.9466 13.256 72.8639 13.256C73.6959 13.256 74.4533 13.1173 75.1359 12.84C75.8399 12.5413 76.3946 12.104 76.7999 11.528C77.2053 10.9307 77.4079 10.184 77.4079 9.288C77.4079 8.52 77.2373 7.83733 76.8959 7.24C76.5759 6.64267 76.0853 6.17333 75.4239 5.832C74.7626 5.49067 73.9519 5.32 72.9919 5.32Z" fill="white"/>
</g>
<defs>
<filter id="filter0_i_42_312" x="0.351318" y="0.968018" width="82.2406" height="30.0959" filterUnits="userSpaceOnUse" color-interpolation-filters="sRGB">
<feFlood flood-opacity="0" result="BackgroundImageFix"/>
<feBlend mode="normal" in="SourceGraphic" in2="BackgroundImageFix" result="shape"/>
<feColorMatrix in="SourceAlpha" type="matrix" values="0 0 0 0 0 0 0 0 0 0 0 0 0 0 0 0 0 0 127 0" result="hardAlpha"/>
<feOffset dy="4"/>
<feGaussianBlur stdDeviation="2"/>
<feComposite in2="hardAlpha" operator="arithmetic" k2="-1" k3="1"/>
<feColorMatrix type="matrix" values="0 0 0 0 0 0 0 0 0 0 0 0 0 0 0 0 0 0 0.25 0"/>
<feBlend mode="normal" in2="shape" result="effect1_innerShadow_42_312"/>
</filter>
</defs>
</svg>
