<svg width="21" height="21" viewBox="0 0 21 21" fill="none" xmlns="http://www.w3.org/2000/svg">
<path fill-rule="evenodd" clip-rule="evenodd" d="M7.23704 14.7541L6.51707 20.2929C6.51058 20.3411 6.5176 20.3902 6.53736 20.4346C6.55713 20.4791 6.58885 20.5172 6.629 20.5447C6.66917 20.5721 6.71617 20.5879 6.76477 20.5902C6.81336 20.5925 6.86165 20.5813 6.90423 20.5577L10.4999 18.5699L14.0956 20.5577C14.1382 20.5813 14.1865 20.5925 14.2351 20.5902C14.2837 20.5879 14.3307 20.5721 14.3709 20.5447C14.411 20.5172 14.4427 20.4791 14.4625 20.4346C14.4823 20.3902 14.4893 20.3411 14.4828 20.2929L13.7628 14.7541L14.4182 14.7715C14.6618 14.7779 14.9007 14.7038 15.0979 14.5605C15.295 14.4173 15.4394 14.213 15.5085 13.9793L16.022 12.244L17.5137 11.2194C17.7146 11.0815 17.8643 10.8811 17.9396 10.6493C18.0149 10.4175 18.0116 10.1674 17.9302 9.9377L17.3256 8.232L17.9302 6.5263C18.0116 6.29661 18.0149 6.04648 17.9396 5.81472C17.8642 5.58297 17.7145 5.38255 17.5137 5.24458L16.022 4.21999L15.5085 2.48468C15.4394 2.25099 15.295 2.04667 15.0979 1.90343C14.9007 1.76019 14.6618 1.68605 14.4182 1.69252L12.6092 1.74044L11.1738 0.638358C10.9805 0.489933 10.7436 0.409473 10.4999 0.409473C10.2562 0.409473 10.0194 0.489933 9.82608 0.638358L8.39069 1.74044L6.58167 1.69252C6.33807 1.68608 6.09915 1.76023 5.902 1.90347C5.70486 2.0467 5.5605 2.25101 5.49135 2.48468L4.97786 4.21999L3.48618 5.24458C3.28529 5.38252 3.13556 5.58294 3.06025 5.8147C2.98494 6.04647 2.98827 6.29661 3.06971 6.5263L3.67426 8.232L3.06971 9.9377C2.98831 10.1674 2.98501 10.4175 3.06032 10.6493C3.13562 10.881 3.28532 11.0814 3.48618 11.2194L4.97786 12.244L5.49135 13.9793C5.56048 14.213 5.70482 14.4173 5.90198 14.5606C6.09913 14.7038 6.33806 14.778 6.58167 14.7715L7.23704 14.7541ZM7.76829 14.7401L7.10717 19.8456L10.2374 18.1152V16.0229C10.0881 15.9864 9.94801 15.9193 9.82608 15.8256L8.39069 14.7236L7.76829 14.7401ZM13.2316 14.7401L12.6092 14.7236L11.1738 15.8256C11.0519 15.9193 10.9118 15.9864 10.7624 16.0229V18.1152L13.8927 19.8456L13.2316 14.7401ZM10.1458 1.05479C10.2474 0.976808 10.3719 0.934539 10.4999 0.934539C10.628 0.934539 10.7525 0.976808 10.8541 1.05479L12.3633 2.21348C12.411 2.25015 12.4699 2.26929 12.53 2.26771L14.4321 2.21735C14.5601 2.21397 14.6857 2.25294 14.7893 2.32821C14.8929 2.40349 14.9688 2.51085 15.0051 2.63365L15.545 4.45817C15.5621 4.51589 15.5985 4.56598 15.6481 4.60005L17.2164 5.67731C17.322 5.7498 17.4007 5.85513 17.4403 5.97693C17.4799 6.09874 17.4781 6.2302 17.4353 6.3509L16.7997 8.1443C16.7796 8.20104 16.7796 8.26296 16.7997 8.3197L17.4353 10.1131C17.4781 10.2338 17.4798 10.3653 17.4403 10.4871C17.4007 10.6089 17.322 10.7142 17.2164 10.7867L15.6481 11.864C15.5985 11.898 15.5621 11.9481 15.545 12.0058L15.0051 13.8303C14.9688 13.9532 14.8929 14.0605 14.7893 14.1358C14.6857 14.2111 14.5601 14.25 14.4321 14.2467L12.53 14.1963C12.4699 14.1947 12.411 14.2139 12.3633 14.2505L10.8541 15.4092C10.7525 15.4872 10.628 15.5295 10.4999 15.5295C10.3719 15.5295 10.2474 15.4872 10.1458 15.4092L8.6366 14.2505C8.58887 14.2139 8.52999 14.1947 8.46982 14.1963L6.56777 14.2467C6.43975 14.25 6.31419 14.2111 6.21058 14.1358C6.10697 14.0605 6.03111 13.9531 5.99476 13.8303L5.45489 12.0058C5.43781 11.9481 5.40141 11.898 5.35178 11.864L3.78342 10.7867C3.67784 10.7142 3.59916 10.6089 3.55958 10.4871C3.52001 10.3653 3.52176 10.2338 3.56456 10.1131L4.20018 8.3197C4.2203 8.26296 4.2203 8.20104 4.20018 8.1443L3.56456 6.3509C3.52177 6.2302 3.52003 6.09874 3.5596 5.97694C3.59918 5.85514 3.67785 5.74981 3.78342 5.67731L5.35178 4.60005C5.40141 4.56598 5.43781 4.51589 5.45489 4.45817L5.99476 2.63365C6.0311 2.51085 6.10697 2.40348 6.21058 2.3282C6.31419 2.25293 6.43974 2.21396 6.56777 2.21735L8.46982 2.26771C8.52999 2.26929 8.58887 2.25015 8.6366 2.21348L10.1458 1.05479ZM10.4999 2.5095C7.34162 2.5095 4.77743 5.07368 4.77743 8.232C4.77743 11.3903 7.34162 13.9545 10.4999 13.9545C13.6582 13.9545 16.2224 11.3903 16.2224 8.232C16.2224 5.07368 13.6582 2.5095 10.4999 2.5095ZM10.4999 3.0345C13.3685 3.0345 15.6974 5.36344 15.6974 8.232C15.6974 11.1006 13.3685 13.4295 10.4999 13.4295C7.63137 13.4295 5.30243 11.1006 5.30243 8.232C5.30243 5.36344 7.63137 3.0345 10.4999 3.0345ZM10.4999 4.4835C8.4311 4.4835 6.75143 6.16316 6.75143 8.232C6.75143 10.3008 8.4311 11.9805 10.4999 11.9805C12.5688 11.9805 14.2484 10.3008 14.2484 8.232C14.2484 6.16316 12.5688 4.4835 10.4999 4.4835ZM8.83984 10.9951L10.4999 10.0585L12.16 10.9951C11.675 11.2873 11.107 11.4555 10.4999 11.4555C9.89291 11.4555 9.32486 11.2873 8.83984 10.9951ZM12.2409 8.79354L13.6415 7.50721C13.6961 7.74493 13.7236 7.98808 13.7234 8.232C13.7234 9.20035 13.2955 10.0696 12.6185 10.6607L12.2409 8.79354ZM7.35838 7.50721L8.75895 8.79354L8.38133 10.6607C7.70437 10.0696 7.27643 9.20035 7.27643 8.232C7.27643 7.98273 7.30478 7.74005 7.35838 7.50721ZM10.4999 5.65585L11.16 7.09985C11.1788 7.14095 11.2079 7.17651 11.2445 7.20308C11.281 7.22965 11.3238 7.24633 11.3687 7.25151L12.9461 7.43308L11.7767 8.50706C11.7434 8.53763 11.7186 8.57629 11.7046 8.61927C11.6906 8.66226 11.688 8.70812 11.697 8.75242L12.0117 10.3086L10.6289 9.52841C10.5896 9.50622 10.5451 9.49455 10.4999 9.49455C10.4547 9.49455 10.4103 9.50622 10.371 9.52841L8.98814 10.3086L9.30289 8.75242C9.31185 8.70812 9.30922 8.66226 9.29526 8.61927C9.28129 8.57629 9.25646 8.53763 9.22318 8.50706L8.05381 7.43308L9.63112 7.25151C9.67602 7.24633 9.71883 7.22965 9.7554 7.20308C9.79197 7.17651 9.82106 7.14095 9.83986 7.09985L10.4999 5.65585ZM11.5759 6.74688L10.787 5.02114C11.992 5.1277 13.0073 5.8984 13.4642 6.96423L11.5759 6.74688ZM10.2128 5.02114L9.42393 6.74688L7.5357 6.96423C7.9927 5.89831 9.00797 5.12774 10.2128 5.02114Z" fill="#B3FFED"/>
</svg>
