<svg width="21" height="21" viewBox="0 0 21 21" fill="none" xmlns="http://www.w3.org/2000/svg">
<path fill-rule="evenodd" clip-rule="evenodd" d="M7.23728 14.7541L6.51732 20.2928C6.51082 20.3411 6.51784 20.3901 6.53761 20.4346C6.55737 20.4791 6.5891 20.5171 6.62925 20.5446C6.66941 20.5721 6.71641 20.5879 6.76501 20.5902C6.81361 20.5925 6.86189 20.5812 6.90447 20.5577L10.5002 18.5699L14.0959 20.5577C14.1385 20.5812 14.1867 20.5925 14.2353 20.5902C14.2839 20.5879 14.3309 20.5721 14.3711 20.5446C14.4113 20.5171 14.443 20.4791 14.4627 20.4346C14.4825 20.3901 14.4895 20.3411 14.483 20.2928L13.7631 14.7541L14.4184 14.7714C14.662 14.7779 14.901 14.7037 15.0981 14.5605C15.2953 14.4172 15.4396 14.2129 15.5088 13.9793L16.0223 12.244L17.5139 11.2194C17.7148 11.0814 17.8645 10.881 17.9399 10.6492C18.0152 10.4175 18.0118 10.1673 17.9304 9.93765L17.3258 8.23195L17.9304 6.52625C18.0118 6.29656 18.0151 6.04643 17.9398 5.81467C17.8645 5.58292 17.7148 5.3825 17.5139 5.24453L16.0223 4.21994L15.5088 2.48463C15.4396 2.25094 15.2953 2.04662 15.0981 1.90338C14.901 1.76014 14.6621 1.686 14.4184 1.69247L12.6094 1.74039L11.174 0.638308C10.9807 0.489883 10.7439 0.409424 10.5002 0.409424C10.2565 0.409424 10.0196 0.489883 9.82633 0.638308L8.39094 1.74039L6.58191 1.69247C6.33831 1.68603 6.0994 1.76018 5.90225 1.90342C5.7051 2.04665 5.56075 2.25096 5.49159 2.48463L4.9781 4.21994L3.48643 5.24453C3.28553 5.38247 3.13581 5.58289 3.0605 5.81465C2.98519 6.04642 2.98851 6.29656 3.06996 6.52625L3.67451 8.23195L3.06996 9.93765C2.98856 10.1673 2.98525 10.4175 3.06056 10.6492C3.13586 10.881 3.28557 11.0814 3.48643 11.2194L4.9781 12.244L5.49159 13.9793C5.56072 14.213 5.70507 14.4173 5.90222 14.5605C6.09938 14.7038 6.3383 14.7779 6.58191 14.7714L7.23728 14.7541ZM7.76854 14.74L7.10742 19.8456L10.2377 18.1151V16.0229C10.0883 15.9864 9.94825 15.9192 9.82633 15.8256L8.39094 14.7235L7.76854 14.74ZM13.2318 14.74L12.6094 14.7235L11.174 15.8256C11.0521 15.9192 10.912 15.9864 10.7627 16.0229V18.1151L13.8929 19.8456L13.2318 14.74ZM10.146 1.05474C10.2476 0.976759 10.3721 0.934489 10.5002 0.934489C10.6282 0.934489 10.7527 0.976759 10.8543 1.05474L12.3635 2.21343C12.4112 2.2501 12.4701 2.26924 12.5303 2.26766L14.4323 2.2173C14.5604 2.21392 14.6859 2.25289 14.7895 2.32816C14.8931 2.40344 14.969 2.5108 15.0053 2.6336L15.5452 4.45812C15.5623 4.51584 15.5987 4.56593 15.6483 4.6L17.2167 5.67726C17.3223 5.74975 17.401 5.85508 17.4405 5.97688C17.4801 6.09869 17.4784 6.23015 17.4356 6.35085L16.7999 8.14425C16.7798 8.20099 16.7798 8.26291 16.7999 8.31965L17.4356 10.113C17.4783 10.2338 17.4801 10.3652 17.4405 10.487C17.4009 10.6088 17.3223 10.7141 17.2167 10.7866L15.6483 11.8639C15.5987 11.898 15.5623 11.9481 15.5452 12.0058L15.0053 13.8303C14.969 13.9531 14.8931 14.0605 14.7895 14.1357C14.6859 14.211 14.5604 14.25 14.4323 14.2466L12.5303 14.1962C12.4701 14.1947 12.4112 14.2138 12.3635 14.2505L10.8543 15.4092C10.7527 15.4871 10.6282 15.5294 10.5002 15.5294C10.3721 15.5294 10.2476 15.4871 10.146 15.4092L8.63685 14.2505C8.58911 14.2138 8.53023 14.1947 8.47007 14.1962L6.56801 14.2466C6.43999 14.25 6.31443 14.211 6.21083 14.1357C6.10722 14.0605 6.03135 13.9531 5.995 13.8303L5.45514 12.0058C5.43806 11.9481 5.40165 11.898 5.35203 11.8639L3.78366 10.7866C3.67809 10.7141 3.5994 10.6088 3.55983 10.487C3.52025 10.3652 3.522 10.2338 3.5648 10.113L4.20043 8.31965C4.22055 8.26291 4.22055 8.20099 4.20043 8.14425L3.5648 6.35085C3.52201 6.23015 3.52027 6.09869 3.55985 5.97689C3.59942 5.85509 3.6781 5.74976 3.78366 5.67726L5.35203 4.6C5.40165 4.56593 5.43806 4.51584 5.45514 4.45812L5.995 2.6336C6.03135 2.5108 6.10721 2.40343 6.21082 2.32815C6.31443 2.25288 6.43999 2.21391 6.56801 2.2173L8.47007 2.26766C8.53023 2.26924 8.58911 2.2501 8.63685 2.21343L10.146 1.05474ZM10.5002 2.50945C7.34186 2.50945 4.77768 5.07363 4.77768 8.23195C4.77768 11.3903 7.34186 13.9545 10.5002 13.9545C13.6585 13.9545 16.2227 11.3903 16.2227 8.23195C16.2227 5.07363 13.6585 2.50945 10.5002 2.50945ZM10.5002 3.03445C13.3687 3.03445 15.6977 5.36339 15.6977 8.23195C15.6977 11.1005 13.3687 13.4295 10.5002 13.4295C7.63162 13.4295 5.30268 11.1005 5.30268 8.23195C5.30268 5.36339 7.63162 3.03445 10.5002 3.03445ZM10.5002 4.48345C8.43134 4.48345 6.75168 6.16311 6.75168 8.23195C6.75168 10.3008 8.43134 11.9805 10.5002 11.9805C12.569 11.9805 14.2487 10.3008 14.2487 8.23195C14.2487 6.16311 12.569 4.48345 10.5002 4.48345ZM8.84009 10.9951L10.5002 10.0584L12.1603 10.9951C11.6753 11.2873 11.1072 11.4555 10.5002 11.4555C9.89315 11.4555 9.3251 11.2873 8.84009 10.9951ZM12.2412 8.79349L13.6417 7.50716C13.6963 7.74488 13.7238 7.98803 13.7237 8.23195C13.7237 9.2003 13.2957 10.0695 12.6188 10.6607L12.2412 8.79349ZM7.35862 7.50716L8.75919 8.79349L8.38157 10.6607C7.70462 10.0695 7.27668 9.2003 7.27668 8.23195C7.27668 7.98268 7.30503 7.74 7.35862 7.50716ZM10.5002 5.6558L11.1602 7.0998C11.1791 7.1409 11.2081 7.17646 11.2447 7.20303C11.2813 7.2296 11.3241 7.24628 11.369 7.25146L12.9463 7.43303L11.7769 8.50701C11.7436 8.53758 11.7188 8.57624 11.7049 8.61922C11.6909 8.66221 11.6883 8.70807 11.6972 8.75237L12.012 10.3086L10.6292 9.52836C10.5898 9.50617 10.5454 9.4945 10.5002 9.4945C10.455 9.4945 10.4106 9.50617 10.3712 9.52836L8.98839 10.3086L9.30313 8.75237C9.3121 8.70807 9.30947 8.66221 9.2955 8.61922C9.28153 8.57624 9.25671 8.53758 9.22342 8.50701L8.05406 7.43303L9.63136 7.25146C9.67627 7.24628 9.71908 7.2296 9.75564 7.20303C9.79221 7.17646 9.8213 7.1409 9.84011 7.0998L10.5002 5.6558ZM11.5762 6.74683L10.7873 5.02109C11.9922 5.12765 13.0076 5.89835 13.4644 6.96418L11.5762 6.74683ZM10.2131 5.02109L9.42418 6.74683L7.53594 6.96418C7.99295 5.89826 9.00821 5.12769 10.2131 5.02109Z" fill="#9A999E"/>
</svg>
