<svg width="21" height="21" viewBox="0 0 21 21" fill="none" xmlns="http://www.w3.org/2000/svg">
<g clip-path="url(#clip0_533_1122)">
<path d="M17.9658 8.61873C17.9658 8.92585 18.2152 9.17453 18.5216 9.17453C18.8287 9.17453 19.0782 8.92585 19.0782 8.61873C19.0782 8.31197 18.8287 8.06288 18.5216 8.06288C18.2152 8.06288 17.9658 8.31197 17.9658 8.61873Z" fill="#B3FFED"/>
<path d="M16.41 15.4425C16.1642 15.4425 15.9653 15.6417 15.9653 15.8875C15.9653 16.133 16.1642 16.3318 16.41 16.3318C16.6559 16.3318 16.8547 16.133 16.8547 15.8875C16.8547 15.6417 16.6559 15.4425 16.41 15.4425Z" fill="#B3FFED"/>
<path d="M15.6987 17.0369C15.1949 17.0369 14.7866 17.4452 14.7866 17.949C14.7866 18.4524 15.1949 18.8607 15.6987 18.8607C16.2025 18.8607 16.6108 18.4524 16.6108 17.949C16.6109 17.4452 16.2025 17.0369 15.6987 17.0369Z" fill="#B3FFED"/>
<path d="M5.629 18.1988C6.00956 18.1988 6.31807 17.8903 6.31807 17.5097C6.31807 17.1292 6.00956 16.8207 5.629 16.8207C5.24845 16.8207 4.93994 17.1292 4.93994 17.5097C4.93994 17.8903 5.24845 18.1988 5.629 18.1988Z" fill="#B3FFED"/>
<path d="M3.87265 14.7313C3.67668 14.7313 3.51709 14.8902 3.51709 15.0873C3.51709 15.2832 3.67672 15.4425 3.87265 15.4425C4.06937 15.4425 4.22826 15.2832 4.22826 15.0873C4.22822 14.8902 4.06932 14.7313 3.87265 14.7313Z" fill="#B3FFED"/>
<path d="M2.24996 6.19594C2.50795 6.19594 2.71672 5.98676 2.71672 5.72881C2.71672 5.47119 2.50795 5.26205 2.24996 5.26205C1.99201 5.26205 1.7832 5.47119 1.7832 5.72881C1.7832 5.98676 1.99201 6.19594 2.24996 6.19594Z" fill="#B3FFED"/>
<path d="M6.80718 4.01756C7.15065 4.01756 7.42923 3.73894 7.42923 3.39474C7.42923 3.05164 7.15065 2.77303 6.80718 2.77303C6.46372 2.77303 6.18506 3.05169 6.18506 3.39474C6.18506 3.7389 6.46372 4.01756 6.80718 4.01756Z" fill="#B3FFED"/>
<path d="M18.4886 12.3306C16.5369 11.638 16.152 11.9006 15.1986 10.997C14.9706 10.7814 14.9756 10.0745 16.2433 10.2413C16.8789 10.325 17.31 9.97442 17.31 9.4742C17.31 9.1407 16.9081 8.67714 16.3095 8.90732C15.443 9.24082 14.8808 8.86245 14.776 8.44056C14.6427 7.90719 14.7938 7.29901 17.0242 6.18486C19.7578 4.81773 18.19 2.33009 16.043 4.67307C15.0917 5.7106 14.6427 6.13995 14.0093 6.47345C13.4406 6.77237 12.7587 6.46238 13.2753 5.77336C13.4755 5.50647 13.8155 5.30057 13.9088 4.9731C14.042 4.50634 13.6494 4.07272 13.3088 4.07272C12.9682 4.07272 12.5421 4.27263 12.4088 4.77286C12.2086 5.68993 11.6983 5.64403 11.4575 5.37928C10.9964 4.87405 11.1625 4.28473 11.2416 3.37263C11.3349 2.30126 11.9691 -0.172885 10.023 0.00955241C9.0846 0.0975719 8.80738 0.982238 9.11094 2.56347C9.48861 4.52632 8.91714 5.89628 8.30715 6.17313C7.57388 6.50659 7.20195 6.3801 5.63995 5.30664C4.80979 4.73546 3.89334 5.23679 3.70598 5.90662C3.54064 6.49662 4.00671 7.2096 4.70647 7.44044C5.78461 7.79637 6.26277 7.87902 6.763 8.15124C7.25182 8.41813 7.3131 9.06515 6.82497 9.65052C6.33615 10.2363 5.0734 9.75175 3.20641 9.61845C-0.0209059 9.38831 0.704496 12.9584 3.73945 11.9084C5.47318 11.308 6.20641 11.4413 6.50714 11.8083C6.92189 12.3146 6.63683 12.999 5.82874 13.4864C3.25058 15.0427 6.14087 16.976 7.20761 14.82C7.65369 13.9193 8.16676 13.6425 8.67416 13.842C9.08817 14.0052 9.61834 15.45 9.01906 17.3989C8.48532 19.1327 8.52166 21 9.77506 21C10.9466 21 11.1297 19.2552 10.9302 17.3547C10.8561 16.6436 10.9109 15.5416 11.4639 15.2651C11.9086 15.0427 12.6034 14.7951 13.0751 15.776C13.5091 16.6763 14.4426 16.5427 14.8096 16.0428C15.0775 15.6769 15.2136 14.8653 14.1469 14.4445C12.8756 13.9421 13.3424 12.575 14.3093 12.7086C15.3768 12.8558 16.1086 13.2488 17.3771 14.3316C19.1471 15.8416 21.4196 13.3706 18.4886 12.3306Z" fill="#B3FFED"/>
</g>
<defs>
<clipPath id="clip0_533_1122">
<rect width="21" height="21" fill="white"/>
</clipPath>
</defs>
</svg>
