<svg width="21" height="21" viewBox="0 0 21 21" fill="none" xmlns="http://www.w3.org/2000/svg">
<g clip-path="url(#clip0_80_55)">
<path d="M17.9658 8.61873C17.9658 8.92586 18.2152 9.17454 18.5216 9.17454C18.8287 9.17454 19.0782 8.92586 19.0782 8.61873C19.0782 8.31198 18.8287 8.06289 18.5216 8.06289C18.2152 8.06289 17.9658 8.31198 17.9658 8.61873Z" fill="#9A999E"/>
<path d="M16.4103 15.4425C16.1644 15.4425 15.9656 15.6417 15.9656 15.8875C15.9656 16.133 16.1644 16.3318 16.4103 16.3318C16.6561 16.3318 16.8549 16.133 16.8549 15.8875C16.8549 15.6417 16.6561 15.4425 16.4103 15.4425Z" fill="#9A999E"/>
<path d="M15.6992 17.0369C15.1954 17.0369 14.7871 17.4453 14.7871 17.949C14.7871 18.4524 15.1954 18.8608 15.6992 18.8608C16.203 18.8608 16.6113 18.4524 16.6113 17.949C16.6114 17.4453 16.203 17.0369 15.6992 17.0369Z" fill="#9A999E"/>
<path d="M5.62949 18.1988C6.01005 18.1988 6.31855 17.8903 6.31855 17.5097C6.31855 17.1292 6.01005 16.8207 5.62949 16.8207C5.24893 16.8207 4.94043 17.1292 4.94043 17.5097C4.94043 17.8903 5.24893 18.1988 5.62949 18.1988Z" fill="#9A999E"/>
<path d="M3.8729 14.7313C3.67693 14.7313 3.51733 14.8902 3.51733 15.0873C3.51733 15.2832 3.67697 15.4425 3.8729 15.4425C4.06961 15.4425 4.2285 15.2832 4.2285 15.0873C4.22846 14.8902 4.06957 14.7313 3.8729 14.7313Z" fill="#9A999E"/>
<path d="M2.25045 6.19595C2.50844 6.19595 2.71721 5.98677 2.71721 5.72882C2.71721 5.4712 2.50844 5.26206 2.25045 5.26206C1.9925 5.26206 1.78369 5.4712 1.78369 5.72882C1.78369 5.98677 1.9925 6.19595 2.25045 6.19595Z" fill="#9A999E"/>
<path d="M6.80743 4.01756C7.15089 4.01756 7.42947 3.73894 7.42947 3.39474C7.42947 3.05164 7.15089 2.77303 6.80743 2.77303C6.46396 2.77303 6.1853 3.05169 6.1853 3.39474C6.1853 3.7389 6.46396 4.01756 6.80743 4.01756Z" fill="#9A999E"/>
<path d="M18.4889 12.3306C16.5371 11.638 16.1523 11.9006 15.1988 10.997C14.9708 10.7814 14.9758 10.0745 16.2435 10.2413C16.8791 10.325 17.3102 9.97443 17.3102 9.4742C17.3102 9.1407 16.9083 8.67714 16.3098 8.90732C15.4433 9.24082 14.881 8.86245 14.7763 8.44056C14.643 7.9072 14.7941 7.29902 17.0245 6.18487C19.758 4.81774 18.1903 2.3301 16.0432 4.67307C15.0919 5.7106 14.643 6.13996 14.0095 6.47345C13.4409 6.77238 12.7589 6.46238 13.2755 5.77336C13.4758 5.50647 13.8157 5.30057 13.909 4.9731C14.0423 4.50635 13.6496 4.07273 13.309 4.07273C12.9685 4.07273 12.5423 4.27264 12.409 4.77286C12.2088 5.68993 11.6986 5.64404 11.4577 5.37928C10.9967 4.87405 11.1627 4.28474 11.2418 3.37263C11.3352 2.30126 11.9694 -0.172881 10.0233 0.00955623C9.08485 0.0975758 8.80762 0.982242 9.11118 2.56348C9.48885 4.52632 8.91738 5.89628 8.3074 6.17314C7.57412 6.5066 7.20219 6.3801 5.64019 5.30664C4.81004 4.73546 3.89358 5.23679 3.70622 5.90662C3.54089 6.49663 4.00695 7.2096 4.70672 7.44044C5.78485 7.79637 6.26301 7.87902 6.76324 8.15124C7.25207 8.41813 7.31334 9.06515 6.82522 9.65053C6.33639 10.2363 5.07364 9.75175 3.20665 9.61845C-0.0206617 9.38831 0.704741 12.9584 3.73969 11.9084C5.47342 11.308 6.20666 11.4413 6.50739 11.8083C6.92213 12.3146 6.63708 12.999 5.82899 13.4864C3.25083 15.0427 6.14112 16.976 7.20785 14.8201C7.65394 13.9193 8.167 13.6425 8.6744 13.842C9.08842 14.0052 9.61858 15.45 9.0193 17.3989C8.48557 19.1327 8.52191 21 9.7753 21C10.9468 21 11.13 19.2552 10.9305 17.3547C10.8563 16.6436 10.9112 15.5416 11.4642 15.2651C11.9089 15.0427 12.6036 14.7951 13.0754 15.776C13.5093 16.6763 14.4428 16.5427 14.8098 16.0429C15.0777 15.677 15.2139 14.8653 14.1471 14.4445C12.8758 13.9421 13.3426 12.575 14.3096 12.7086C15.3771 12.8558 16.1089 13.2488 17.3773 14.3316C19.1473 15.8416 21.4198 13.3706 18.4889 12.3306Z" fill="#9A999E"/>
</g>
<defs>
<clipPath id="clip0_80_55">
<rect width="21" height="21" fill="white"/>
</clipPath>
</defs>
</svg>
