<svg width="21" height="21" viewBox="0 0 21 21" fill="none" xmlns="http://www.w3.org/2000/svg">
<g clip-path="url(#clip0_533_3162)">
<path d="M10.5 0.8751C8.59636 0.8751 6.73546 1.4396 5.15264 2.49721C3.56982 3.55481 2.33616 5.05803 1.60766 6.81677C0.87917 8.57551 0.688563 10.5108 1.05995 12.3778C1.43133 14.2449 2.34802 15.9599 3.6941 17.306C5.04018 18.6521 6.75519 19.5688 8.62226 19.9402C10.4893 20.3115 12.4246 20.1209 14.1833 19.3924C15.9421 18.6639 17.4453 17.4303 18.5029 15.8475C19.5605 14.2646 20.125 12.4037 20.125 10.5001C20.1308 9.2345 19.8858 7.9803 19.4041 6.80993C18.9225 5.63956 18.2137 4.5762 17.3188 3.68128C16.4239 2.78636 15.3605 2.07761 14.1902 1.59596C13.0198 1.11431 11.7656 0.869308 10.5 0.8751ZM10.5 18.3751C8.94248 18.3751 7.41992 17.9132 6.12489 17.0479C4.82985 16.1826 3.82049 14.9527 3.22445 13.5137C2.62841 12.0748 2.47246 10.4914 2.77632 8.96376C3.08018 7.43616 3.8302 6.03297 4.93154 4.93163C6.03288 3.8303 7.43607 3.08027 8.96367 2.77642C10.4913 2.47256 12.0747 2.62851 13.5136 3.22455C14.9526 3.82059 16.1825 4.82995 17.0478 6.12498C17.9131 7.42002 18.375 8.94257 18.375 10.5001C18.3635 12.5851 17.5301 14.5815 16.0558 16.0559C14.5814 17.5302 12.585 18.3636 10.5 18.3751Z" fill="#B3FFED"/>
<path d="M10.5 8.75C10.2679 8.75 10.0454 8.84219 9.88128 9.00628C9.71719 9.17038 9.625 9.39294 9.625 9.625V14.875C9.625 15.1071 9.71719 15.3296 9.88128 15.4937C10.0454 15.6578 10.2679 15.75 10.5 15.75C10.7321 15.75 10.9546 15.6578 11.1187 15.4937C11.2828 15.3296 11.375 15.1071 11.375 14.875V9.625C11.375 9.39294 11.2828 9.17038 11.1187 9.00628C10.9546 8.84219 10.7321 8.75 10.5 8.75Z" fill="#B3FFED"/>
<path d="M10.5 7C10.9832 7 11.375 6.60825 11.375 6.125C11.375 5.64175 10.9832 5.25 10.5 5.25C10.0168 5.25 9.625 5.64175 9.625 6.125C9.625 6.60825 10.0168 7 10.5 7Z" fill="#B3FFED"/>
</g>
<defs>
<clipPath id="clip0_533_3162">
<rect width="21" height="21" fill="white"/>
</clipPath>
</defs>
</svg>
