<svg width="21" height="21" viewBox="0 0 21 21" fill="none" xmlns="http://www.w3.org/2000/svg">
<g clip-path="url(#clip0_80_82)">
<path d="M10.5 0.875001C8.59636 0.875001 6.73546 1.4395 5.15264 2.49711C3.56982 3.55471 2.33616 5.05793 1.60766 6.81667C0.87917 8.57541 0.688563 10.5107 1.05995 12.3777C1.43133 14.2448 2.34802 15.9598 3.6941 17.3059C5.04018 18.652 6.75519 19.5687 8.62226 19.9401C10.4893 20.3114 12.4246 20.1208 14.1833 19.3923C15.9421 18.6638 17.4453 17.4302 18.5029 15.8474C19.5605 14.2645 20.125 12.4036 20.125 10.5C20.1308 9.23441 19.8858 7.9802 19.4041 6.80983C18.9225 5.63946 18.2137 4.5761 17.3188 3.68118C16.4239 2.78626 15.3605 2.07751 14.1902 1.59586C13.0198 1.11421 11.7656 0.869209 10.5 0.875001ZM10.5 18.375C8.94248 18.375 7.41992 17.9131 6.12489 17.0478C4.82985 16.1825 3.82049 14.9526 3.22445 13.5136C2.62841 12.0747 2.47246 10.4913 2.77632 8.96366C3.08018 7.43606 3.8302 6.03287 4.93154 4.93153C6.03288 3.8302 7.43607 3.08018 8.96367 2.77632C10.4913 2.47246 12.0747 2.62841 13.5136 3.22445C14.9526 3.82049 16.1825 4.82985 17.0478 6.12489C17.9131 7.41992 18.375 8.94247 18.375 10.5C18.3635 12.585 17.5301 14.5814 16.0558 16.0558C14.5814 17.5301 12.585 18.3635 10.5 18.375Z" fill="#9A999E"/>
<path d="M10.5 8.75C10.2679 8.75 10.0454 8.84219 9.88128 9.00628C9.71719 9.17038 9.625 9.39294 9.625 9.625V14.875C9.625 15.1071 9.71719 15.3296 9.88128 15.4937C10.0454 15.6578 10.2679 15.75 10.5 15.75C10.7321 15.75 10.9546 15.6578 11.1187 15.4937C11.2828 15.3296 11.375 15.1071 11.375 14.875V9.625C11.375 9.39294 11.2828 9.17038 11.1187 9.00628C10.9546 8.84219 10.7321 8.75 10.5 8.75Z" fill="#9A999E"/>
<path d="M10.5 7C10.9832 7 11.375 6.60825 11.375 6.125C11.375 5.64175 10.9832 5.25 10.5 5.25C10.0168 5.25 9.625 5.64175 9.625 6.125C9.625 6.60825 10.0168 7 10.5 7Z" fill="#9A999E"/>
</g>
<defs>
<clipPath id="clip0_80_82">
<rect width="21" height="21" fill="white"/>
</clipPath>
</defs>
</svg>
