<svg width="21" height="21" viewBox="0 0 21 21" fill="none" xmlns="http://www.w3.org/2000/svg">
<path fill-rule="evenodd" clip-rule="evenodd" d="M11.1562 0H9.84375C9.11925 0 8.53125 0.588 8.53125 1.3125V19.6875C8.53125 20.412 9.11925 21 9.84375 21H11.1562C11.8807 21 12.4688 20.412 12.4688 19.6875V1.3125C12.4688 0.588 11.8807 0 11.1562 0ZM17.7188 10.5H16.4062C15.6818 10.5 15.0938 11.088 15.0938 11.8125V19.6875C15.0938 20.412 15.6818 21 16.4062 21H17.7188C18.4433 21 19.0312 20.412 19.0312 19.6875V11.8125C19.0312 11.088 18.4433 10.5 17.7188 10.5ZM4.59375 5.90625H3.28125C2.55675 5.90625 1.96875 6.49425 1.96875 7.21875V19.6875C1.96875 20.412 2.55675 21 3.28125 21H4.59375C5.31825 21 5.90625 20.412 5.90625 19.6875V7.21875C5.90625 6.49425 5.31825 5.90625 4.59375 5.90625Z" fill="#9A999E"/>
</svg>
