<svg width="37" height="36" viewBox="0 0 37 36" fill="none" xmlns="http://www.w3.org/2000/svg">
<path d="M33.2712 10.0687C31.5657 10.0969 30.1493 11.5594 30.236 13.2187C30.2649 14.1469 30.7274 14.9344 31.4212 15.4687C27.8368 20.1375 24.1946 20.5031 19.9743 12.7687C21.4774 12.0375 22.3157 10.1812 21.2173 8.325C20.697 7.425 19.6274 6.975 18.5579 7.03125C18.529 7.03125 18.529 7.03125 18.5001 7.03125C18.5001 7.03125 18.4712 7.03125 18.4423 7.03125C17.3728 7.00312 16.3321 7.425 15.7829 8.325C14.6845 10.1812 15.5228 12.0375 17.0259 12.7687C12.8056 20.5031 9.16338 20.1375 5.579 15.4687C6.27275 14.9344 6.73525 14.1187 6.76416 13.2187C6.82197 11.5594 5.43447 10.0969 3.729 10.0687C1.96572 10.0406 0.549316 11.3906 0.549316 13.1062C0.549316 14.7656 1.93682 16.1437 3.67119 16.1437C3.78682 16.1437 3.93135 16.1437 4.04697 16.1156L5.23213 27.4219C5.31885 28.3219 6.09932 28.9969 7.02432 28.9969H18.5001H29.9759C30.9009 28.9969 31.6813 28.3219 31.7681 27.4219L32.9532 16.1156C33.0688 16.1437 33.1845 16.1437 33.329 16.1437C35.0345 16.1437 36.4509 14.7937 36.4509 13.1062C36.4509 11.3906 35.0056 10.0406 33.2712 10.0687Z" fill="#FFFF00"/>
</svg>
