<svg width="30" height="17" viewBox="0 0 30 17" fill="none" xmlns="http://www.w3.org/2000/svg">
<path d="M19.9553 3.02115C19.9553 1.40383 18.6484 0 17.1428 0C15.6372 0 14.3303 1.40383 14.3303 3.02115C14.3303 4.63847 15.6372 6.0423 17.1428 6.0423C18.6484 6.0423 19.9553 4.63847 19.9553 3.02115ZM17.1428 7.04934C14.6791 7.04934 12.4553 9.90433 12.4553 13.4522C12.4553 17 21.8303 17 21.8303 13.4522C21.8303 9.90433 19.6066 7.04934 17.1428 7.04934Z" fill="#C0FAEB"/>
<g clip-path="url(#clip0_80_191)">
<path d="M15 3.02115C15 1.40383 13.6931 0 12.1875 0C10.6819 0 9.375 1.40383 9.375 3.02115C9.375 4.63847 10.6819 6.0423 12.1875 6.0423C13.6931 6.0423 15 4.63847 15 3.02115ZM12.1875 7.04934C9.72375 7.04934 7.5 9.90433 7.5 13.4522C7.5 17 16.875 17 16.875 13.4522C16.875 9.90433 14.6513 7.04934 12.1875 7.04934Z" fill="#C0FAEB" fill-opacity="0.2"/>
</g>
<path d="M24.6428 3.02115C24.6428 1.40383 23.3359 0 21.8303 0C20.3247 0 19.0178 1.40383 19.0178 3.02115C19.0178 4.63847 20.3247 6.0423 21.8303 6.0423C23.3359 6.0423 24.6428 4.63847 24.6428 3.02115ZM21.8303 7.04934C19.3666 7.04934 17.1428 9.90433 17.1428 13.4522C17.1428 17 26.5178 17 26.5178 13.4522C26.5178 9.90433 24.2941 7.04934 21.8303 7.04934Z" fill="#C0FAEB" fill-opacity="0.2"/>
<defs>
<clipPath id="clip0_80_191">
<rect width="15" height="17" fill="white"/>
</clipPath>
</defs>
</svg>
