<svg width="20" height="22" viewBox="0 0 20 22" fill="none" xmlns="http://www.w3.org/2000/svg">
<path d="M10.0001 17.4167L15.8334 11L18.3334 13.75L12.5001 20.1667L10.0001 17.4167Z" fill="#B3FFED"/>
<path d="M15.0001 11.9167L13.7501 5.04168L1.66675 1.83334L4.58341 15.125L10.8334 16.5L15.0001 11.9167Z" fill="#B3FFED"/>
<path d="M1.66675 1.83334L7.98842 8.78718L1.66675 1.83334Z" fill="#B3FFED"/>
<path d="M9.16675 11.9167C10.0872 11.9167 10.8334 11.0959 10.8334 10.0833C10.8334 9.07082 10.0872 8.25001 9.16675 8.25001C8.24627 8.25001 7.50008 9.07082 7.50008 10.0833C7.50008 11.0959 8.24627 11.9167 9.16675 11.9167Z" fill="#B3FFED"/>
<path d="M1.66675 1.83334L13.7501 5.04168L15.0001 11.9167L10.8334 16.5L4.58341 15.125L1.66675 1.83334ZM1.66675 1.83334L7.98842 8.78718M10.0001 17.4167L15.8334 11L18.3334 13.75L12.5001 20.1667L10.0001 17.4167ZM10.8334 10.0833C10.8334 11.0959 10.0872 11.9167 9.16675 11.9167C8.24627 11.9167 7.50008 11.0959 7.50008 10.0833C7.50008 9.07082 8.24627 8.25001 9.16675 8.25001C10.0872 8.25001 10.8334 9.07082 10.8334 10.0833Z" stroke="black" stroke-linecap="round" stroke-linejoin="round"/>
</svg>
