<svg width="19" height="16" viewBox="0 0 19 16" fill="none" xmlns="http://www.w3.org/2000/svg">
<path d="M8.03125 11.4915L10 10.4119L11.9688 11.5057L11.4531 9.46022L13.1875 8.09659L10.9062 7.91193L10 5.98011L9.09375 7.89772L6.8125 8.08238L8.54688 9.46022L8.03125 11.4915ZM6.14062 13.8636L7.15625 9.87215L3.75 7.18749L8.25 6.83238L10 3.06818L11.75 6.83238L16.25 7.18749L12.8438 9.87215L13.8594 13.8636L10 11.7472L6.14062 13.8636Z" fill="#C0FAEB"/>
<path d="M14.2656 5.06393L15.25 4.52415L16.2344 5.07103L15.9766 4.0483L16.8438 3.36648L15.7031 3.27415L15.25 2.30825L14.7969 3.26705L13.6562 3.35938L14.5234 4.0483L14.2656 5.06393ZM13.3203 6.25001L13.8281 4.25427L12.125 2.91194L14.375 2.73438L15.25 0.85228L16.125 2.73438L18.375 2.91194L16.6719 4.25427L17.1797 6.25001L15.25 5.19177L13.3203 6.25001Z" fill="#C0FAEB" fill-opacity="0.4"/>
<path d="M2.76562 14.0639L3.75 13.5241L4.73438 14.071L4.47656 13.0483L5.34375 12.3665L4.20312 12.2741L3.75 11.3082L3.29688 12.267L2.15625 12.3594L3.02344 13.0483L2.76562 14.0639ZM1.82031 15.25L2.32813 13.2543L0.625 11.9119L2.875 11.7344L3.75 9.85226L4.625 11.7344L6.875 11.9119L5.17188 13.2543L5.67969 15.25L3.75 14.1918L1.82031 15.25Z" fill="#C0FAEB" fill-opacity="0.4"/>
</svg>
