<svg width="20" height="20" viewBox="0 0 20 20" fill="none" xmlns="http://www.w3.org/2000/svg">
<g clip-path="url(#clip0_14_288)">
<path d="M19.7653 0.38445C19.7878 0.263853 19.7407 0.136825 19.6362 0.0614216C19.5024 -0.0352362 19.3172 -0.0158789 19.2058 0.106053L19.0321 0.296747L18.7579 0.414435C18.6605 0.384305 18.5518 0.381717 18.4386 0.409692C18.3737 0.425769 18.3545 0.421991 18.2968 0.410608C18.1706 0.385849 18.0386 0.370849 17.8279 0.438165C17.7536 0.433824 17.6666 0.444451 17.5298 0.489291C17.358 0.545948 17.251 0.680999 17.1729 0.780052L17.147 0.813284C16.6557 0.93983 16.4617 1.21596 16.3863 1.43088C16.3714 1.47265 16.3616 1.51426 16.3536 1.55589C15.8359 1.16345 15.1242 1.12786 14.5202 1.48095C13.827 1.88674 13.5169 2.65499 13.7307 3.43848C14.0753 4.7041 15.2762 5.8961 15.9933 6.60875L16.2257 6.84097C16.5993 7.22213 17.0828 7.99046 16.9863 8.50401C16.9628 8.63208 16.895 8.81789 16.5819 8.95966C16.4224 9.0318 16.2698 9.07654 16.1222 9.09402C16.387 8.35159 16.259 7.55326 15.7562 7.03031C15.0386 6.28528 14.3609 6.47117 14.1019 6.67343C13.9929 6.75912 13.9498 6.90462 13.9948 7.03557C14.0402 7.16658 14.164 7.25471 14.3032 7.25458C14.6475 7.2543 15.035 7.51074 15.2033 7.85096C15.3452 8.13768 15.3178 8.44846 15.1255 8.75729C14.9797 8.6384 14.8541 8.50732 14.7465 8.39426C14.7022 8.34794 14.6605 8.30416 14.6237 8.26829L14.5969 8.23862C14.0819 7.65825 13.5573 7.31964 13.0318 7.22708C12.9659 6.29831 12.3097 5.35874 11.3151 4.81249C11.2345 4.76796 11.1509 4.7285 11.0641 4.69275C10.8786 3.72234 10.285 3.07161 9.33799 2.80517C7.95608 2.41576 6.85886 3.03333 6.3275 4.49864C6.14614 4.99863 5.76083 6.70304 5.44452 8.132L5.38499 8.39979C5.34267 8.58873 5.12248 8.92834 4.88786 9.00918C4.8231 9.03193 4.74147 9.04247 4.62856 8.95028C4.39815 8.7628 4.53422 8.22177 4.60739 7.93104C4.62173 7.8746 4.63369 7.82597 4.64363 7.78171C4.70343 7.50477 4.61255 7.19594 4.406 6.97604C4.20412 6.76085 3.92472 6.66204 3.63949 6.70518C3.0354 6.79613 2.84382 7.28472 2.76854 7.50492C2.70999 7.39313 2.62933 7.24635 2.47706 7.15938C2.35339 7.08877 2.27049 7.06067 2.19654 7.04985C2.0021 6.94044 1.87002 6.92972 1.74026 6.9289C1.68193 6.92862 1.66207 6.92862 1.6019 6.89952C1.48167 6.84227 1.35771 6.82465 1.24174 6.84676L1.01775 6.70471L0.875982 6.48871C0.784405 6.34914 0.602199 6.30184 0.453788 6.37887C0.341214 6.43741 0.276662 6.55415 0.279396 6.67527C0.1674 6.72479 0.0891831 6.83529 0.0859837 6.96388C0.0817714 7.12895 0.202111 7.27093 0.3657 7.29389L0.621074 7.33L0.841914 7.46997C0.86968 7.58077 0.935565 7.68497 1.03636 7.77081C1.08727 7.81425 1.09541 7.83214 1.11973 7.88573C1.17332 8.0034 1.23719 8.11972 1.41627 8.25255C1.45585 8.31482 1.5149 8.37924 1.63066 8.46373C1.77677 8.57053 1.94885 8.57832 2.07457 8.58383C2.08694 8.58475 2.10228 8.58516 2.11681 8.58614C2.50535 8.9122 2.84322 8.90916 3.06215 8.84494C3.10427 8.83279 3.1441 8.81663 3.18241 8.79914C3.16506 9.4484 3.55041 10.048 4.18899 10.3328C4.92233 10.6607 5.7275 10.4651 6.24029 9.83538C7.06808 8.8179 7.33851 7.14786 7.49976 6.15009L7.55374 5.82552C7.646 5.2998 7.98875 4.45956 8.46238 4.2386C8.58005 4.18354 8.77115 4.13064 9.06856 4.30275C9.22042 4.38994 9.34514 4.4879 9.44526 4.59758C8.68777 4.81484 8.11335 5.38409 7.98115 6.09743C7.79257 7.11379 8.33858 7.55722 8.65389 7.6496C8.78737 7.68885 8.93001 7.63897 9.01051 7.52545C9.09101 7.41278 9.09025 7.26088 9.00961 7.14834C8.8082 6.86806 8.79136 6.40393 8.96999 6.06874C9.1204 5.78672 9.38921 5.62773 9.75176 5.60437C9.7407 5.7924 9.70685 5.97095 9.67833 6.12414C9.66634 6.18695 9.65494 6.24634 9.64713 6.29734C9.64607 6.30274 9.6416 6.32136 9.63811 6.33597C9.48179 7.0242 9.49315 7.60415 9.67083 8.06671C8.9079 8.53778 8.36699 9.50074 8.28864 10.5769C8.28157 10.6687 8.28051 10.762 8.28424 10.8549C7.47942 11.428 7.13538 12.2388 7.2874 13.2109C7.50921 14.6294 8.52727 15.3693 10.0813 15.242C10.6113 15.1986 12.3214 14.8395 13.7525 14.5314L14.0202 14.4736C14.21 14.4337 14.6103 14.492 14.7815 14.6715C14.829 14.7215 14.8728 14.791 14.8361 14.9321C14.7618 15.2196 14.2129 15.3212 13.9181 15.3761C13.8612 15.3865 13.8117 15.3955 13.7677 15.4054C13.4908 15.4664 13.2477 15.6778 13.134 15.9571C13.0225 16.2301 13.0485 16.5256 13.2067 16.7667C13.5412 17.2782 14.0651 17.2487 14.2966 17.2253C14.2196 17.3253 14.1198 17.4594 14.104 17.6347C14.0915 17.7763 14.1004 17.8636 14.1213 17.9347C14.1024 18.1569 14.148 18.2821 14.2012 18.3999C14.2253 18.4531 14.233 18.4712 14.2324 18.5379C14.2301 18.6754 14.2689 18.7987 14.3415 18.8968L14.2933 19.2308L14.1548 19.4484C14.0644 19.5895 14.0959 19.7752 14.2271 19.8786C14.2747 19.9163 14.332 19.9398 14.3925 19.9465C14.4529 19.9532 14.5139 19.9428 14.5687 19.9165C14.6602 19.9984 14.793 20.0245 14.9116 19.9747C15.0639 19.911 15.1441 19.7432 15.0981 19.5845L15.0264 19.3365L15.0773 18.9814C15.1619 18.91 15.2255 18.8099 15.2606 18.6881C15.2783 18.6242 15.2912 18.6093 15.33 18.5647C15.4144 18.4671 15.4936 18.3603 15.5397 18.1427C15.5802 18.0808 15.6139 17.9998 15.6427 17.8596C15.6792 17.6824 15.6142 17.5227 15.5673 17.4061L15.5515 17.3667C15.6861 16.8778 15.5427 16.5719 15.3936 16.3995C15.3642 16.3665 15.3331 16.337 15.3016 16.3093C15.8988 16.055 16.2833 15.4545 16.2768 14.7552C16.2687 13.9518 15.7556 13.3017 14.9699 13.0976C13.6997 12.7692 12.069 13.2189 11.0949 13.4879L10.7776 13.5742C10.2609 13.7095 9.35421 13.7476 8.95621 13.4091C8.85722 13.3249 8.72942 13.174 8.7619 12.8311C8.77827 12.6569 8.81525 12.5027 8.87311 12.3662C9.38632 12.9645 10.1431 13.2494 10.8466 13.0723C11.8491 12.8201 12.0247 12.1391 11.9771 11.8141C11.9573 11.6768 11.8524 11.5671 11.7163 11.5414C11.5799 11.5157 11.4421 11.5793 11.3737 11.6996C11.2024 11.999 10.7876 12.2079 10.4085 12.1853C10.0892 12.1663 9.83289 11.9881 9.66036 11.6677C9.83623 11.6 10.012 11.5559 10.1636 11.5184C10.226 11.5031 10.2845 11.4888 10.3341 11.4747C10.3471 11.4721 10.3601 11.4694 10.3731 11.4664C11.1583 11.302 11.7238 11.0005 12.0607 10.5703C12.8462 10.969 13.9059 10.9461 14.8605 10.4889C14.9432 10.4492 15.0243 10.4037 15.1035 10.3542C16.0011 10.7679 16.8757 10.6643 17.6439 10.0495C18.7645 9.1528 18.9018 7.90125 18.0195 6.61613C17.7184 6.1774 16.5574 4.87145 15.5792 3.78257L15.3964 3.57853C15.2678 3.43357 15.1195 3.05733 15.1903 2.81937C15.2098 2.75343 15.2488 2.68076 15.3895 2.64264C15.6756 2.56473 16.0366 2.99032 16.2304 3.21899C16.268 3.26346 16.3001 3.30158 16.3308 3.33531C16.5213 3.54551 16.8253 3.65104 17.124 3.61146C17.4167 3.57263 17.6598 3.4028 17.7909 3.14582C18.0687 2.60166 17.7827 2.16161 17.6475 1.97205C17.7725 1.98953 17.9386 2.00961 18.0985 1.93594C18.2278 1.87665 18.2987 1.82544 18.3505 1.77192C18.5527 1.67811 18.6385 1.57635 18.7143 1.4717C18.7494 1.4244 18.7607 1.40831 18.8189 1.37614C18.9788 1.28775 19.0522 1.1707 19.0864 1.079L19.3252 0.976181L19.583 0.980988C19.7502 0.984333 19.8927 0.86052 19.9122 0.694568C19.9266 0.569084 19.8667 0.450191 19.7653 0.38445ZM10.9171 9.46106C10.8143 9.74387 10.1801 10.0206 9.73049 10.1891C9.84996 9.9627 10.0087 9.74988 10.1923 9.57872C10.5398 9.25466 10.8311 9.26333 10.8922 9.296C10.9372 9.37537 10.9311 9.42254 10.9171 9.46106ZM11.3952 7.71346C11.3044 7.72081 11.2643 7.69611 11.235 7.66741C11.0204 7.4559 11.0334 6.76446 11.0675 6.28536C11.2235 6.48807 11.3511 6.72129 11.4303 6.95975C11.5798 7.41003 11.4506 7.67156 11.3952 7.71346ZM13.0472 9.33245C12.5933 9.19199 12.456 8.9347 12.4547 8.86568C12.5012 8.78692 12.545 8.76866 12.5851 8.76152C12.8819 8.71054 13.4368 9.12339 13.806 9.43031C13.5509 9.43904 13.287 9.40672 13.0472 9.33245Z" fill="#66B933"/>
<path d="M19.5887 0.657034L19.297 0.592178L19.4464 0.325195L19.2251 0.567869L18.7434 0.774914C18.7006 0.729013 18.6284 0.697614 18.5171 0.725187C18.2227 0.798612 18.2141 0.641648 17.8871 0.760766C17.8201 0.785461 17.8426 0.728531 17.6312 0.798275C17.4842 0.846475 17.385 1.0927 17.2867 1.1138C16.338 1.31687 16.7138 2.12618 16.8449 2.28637C17.0076 2.48573 16.8724 2.55401 16.8002 2.48236C16.6877 2.36975 16.5485 2.18521 16.2811 1.92188C15.365 1.01813 13.6585 1.93698 14.0444 3.35245C14.408 4.68555 15.8537 5.99718 16.4582 6.61309C17.0051 7.17037 17.9555 8.69368 16.7163 9.25522C16.295 9.44638 15.9336 9.46099 15.6258 9.38322C16.0581 8.67813 16.0331 7.78662 15.5224 7.25558C14.8192 6.52507 14.3027 6.92934 14.3027 6.92934C15.1209 6.92871 16.1486 7.9645 15.3018 9.0742C15.2679 9.1186 15.2316 9.16109 15.193 9.20149C14.8303 8.98669 14.5697 8.67085 14.3927 8.49639C14.3142 8.41863 13.5977 7.50534 12.707 7.52488C12.7851 6.57705 12.0995 5.61349 11.1595 5.09676C11.0364 5.02949 10.9073 4.97406 10.7737 4.93121C10.6817 4.22263 10.3333 3.42255 9.24978 3.11735C7.5992 2.65246 6.89627 3.88304 6.63321 4.6091C6.40782 5.23066 5.80388 8.01928 5.70224 8.47094C5.60573 8.90161 5.00189 9.67365 4.42334 9.202C3.97708 8.83867 4.25807 8.02571 4.3257 7.71278C4.39839 7.37618 4.09969 6.9641 3.68765 7.02619C3.19388 7.10047 3.10139 7.55412 3.04478 7.70024C2.92531 8.00814 2.64657 7.85595 2.59049 7.81922C2.50593 7.76458 2.45001 7.51787 2.31538 7.44107C2.12209 7.33076 2.13322 7.39094 2.0723 7.35383C1.7758 7.17134 1.73556 7.3232 1.46192 7.19304C1.3766 7.15233 1.30907 7.15632 1.25934 7.17924C1.2427 7.18997 1.23151 7.20113 1.21582 7.21548L0.784384 6.94176L0.604622 6.66743L0.715556 6.94487L0.411194 6.9722L0.736184 7.01797L1.1622 7.28811C1.14045 7.35205 1.14875 7.43956 1.24753 7.52379C1.47814 7.72069 1.35587 7.81895 1.64332 8.01558C1.70234 8.05568 1.64281 8.07037 1.8226 8.20151C1.9473 8.29288 2.20528 8.23021 2.27994 8.29817C2.99721 8.95101 3.4366 8.17449 3.49046 7.97439C3.55762 7.72622 3.69222 7.7963 3.6759 7.89648C3.64945 8.05362 3.58077 8.27414 3.5223 8.64485C3.32065 9.91634 5.06167 10.7688 5.98787 9.6308C6.85964 8.55908 7.08463 6.61973 7.23333 5.76986C7.36859 5.00076 8.05346 3.34086 9.23116 4.02145C9.6319 4.25273 9.85391 4.53812 9.97017 4.83338C9.14488 4.89234 8.4347 5.43212 8.3006 6.15696C8.11622 7.15333 8.74554 7.33798 8.74554 7.33798C8.26816 6.67311 8.51257 5.23474 9.9077 5.27686C9.96352 5.27867 10.0192 5.28346 10.0745 5.2912C10.1109 5.71097 10.0061 6.10696 9.96738 6.35198C9.95024 6.45738 9.64807 7.49594 10.1039 8.20865C9.24941 8.55993 8.68847 9.559 8.61258 10.6004C8.60204 10.7446 8.60617 10.8844 8.62225 11.0197C8.0164 11.3991 7.43464 12.0491 7.60867 13.161C7.87358 14.8552 9.2849 14.9816 10.0548 14.9183C10.7133 14.8643 13.5004 14.2515 13.9529 14.156C14.3849 14.0645 15.3382 14.2919 15.1508 15.0141C15.006 15.5711 14.1499 15.6544 13.8377 15.723C13.5007 15.7971 13.2511 16.2406 13.4793 16.5892C13.7527 17.007 14.2035 16.9021 14.3595 16.893C14.6898 16.8736 14.667 17.1903 14.6571 17.2566C14.6425 17.3564 14.4417 17.51 14.4279 17.6638C14.4081 17.8854 14.4583 17.8503 14.4498 17.9211C14.4072 18.2669 14.562 18.2396 14.5575 18.5431C14.5562 18.6349 14.5865 18.6936 14.6262 18.7293L14.6277 18.7277L14.6394 18.7402L14.651 18.7492C14.6628 18.7569 14.6755 18.7633 14.6889 18.7675L14.6053 19.3471L14.4287 19.624L14.6367 19.4087L14.7866 19.6754L14.6951 19.36L14.7797 18.7747C14.8437 18.7644 14.9139 18.7187 14.9476 18.6002C15.0306 18.3085 15.1708 18.3788 15.2296 18.0357C15.2418 17.9654 15.2794 18.0134 15.3242 17.7953C15.3557 17.6439 15.1911 17.4353 15.2214 17.3394C15.516 16.4149 14.627 16.3394 14.4231 16.3733C14.1694 16.4158 14.1768 16.2643 14.2751 16.2377C14.4289 16.1957 14.6578 16.1664 15.0191 16.0655C16.2589 15.7184 16.3086 13.7811 14.8885 13.4133C13.5505 13.0671 11.694 13.6708 10.8597 13.8895C10.1043 14.0873 8.31007 14.1562 8.43811 12.8017C8.48142 12.3411 8.64803 12.0203 8.86818 11.7919C9.26575 12.517 10.0523 12.9377 10.7669 12.7577C11.7502 12.5106 11.6556 11.8615 11.6556 11.8615C11.2498 12.5719 9.84095 12.9497 9.29764 11.6638C9.27622 11.6122 9.25738 11.5597 9.24121 11.5062C9.60794 11.298 10.0113 11.2286 10.2506 11.1617C10.3593 11.1315 11.5551 10.9561 11.9563 10.1292C12.6875 10.656 13.8003 10.6374 14.7193 10.1965C14.8497 10.1343 14.9691 10.0609 15.0786 9.98004C15.7085 10.3174 16.5619 10.4997 17.4407 9.79677C18.7797 8.72526 18.1884 7.43764 17.7514 6.80075C17.3772 6.25592 15.4618 4.14113 15.1534 3.79573C14.8605 3.46596 14.5837 2.52612 15.3039 2.33014C15.859 2.17904 16.3567 2.88085 16.5716 3.11819C16.8031 3.37337 17.3116 3.3703 17.5013 2.99905C17.7284 2.55419 17.4131 2.21486 17.3277 2.08397C17.1469 1.80718 17.4329 1.66982 17.4954 1.64504C17.5891 1.60832 17.8222 1.70652 17.9627 1.64167C18.1651 1.54887 18.1098 1.52271 18.1754 1.49494C18.4966 1.36005 18.3962 1.23918 18.6613 1.09246C18.7345 1.05201 18.7712 1.0031 18.786 0.955336L18.7833 0.946043C18.7951 0.904852 18.7937 0.876572 18.7878 0.854208L19.2609 0.651021L19.5887 0.657034ZM10.7765 5.88581C10.7855 5.79739 10.7937 5.69399 10.7987 5.57978C11.2542 5.89068 11.5844 6.39314 11.7389 6.8567C11.9623 7.53038 11.7146 8.00444 11.4458 8.03508C10.552 8.13741 10.7078 6.57502 10.7765 5.88581ZM9.48879 10.6199C9.40467 10.6489 9.30716 10.6841 9.20083 10.7274C9.29414 10.1838 9.61345 9.67423 9.97074 9.34076C10.4897 8.85678 11.0239 8.88463 11.1638 9.11631C11.6289 9.88589 10.1436 10.395 9.48879 10.6199ZM12.9509 9.64286C12.2729 9.43302 12.0321 8.95505 12.1633 8.71876C12.6004 7.93244 13.7803 8.96867 14.3007 9.42586C14.3674 9.48461 14.4464 9.5518 14.5369 9.62222C14.0187 9.81145 13.4175 9.78772 12.9509 9.64286Z" fill="black"/>
<path d="M15.4211 19.6893H15.4827V19.51H15.5527V19.4667H15.3532V19.51H15.4211V19.6893ZM15.5708 19.6819V19.4709H15.6638L15.6978 19.6138H15.6985L15.7321 19.4709H15.8228V19.6819H15.7718V19.5053L15.7708 19.5047L15.7219 19.6819H15.669L15.6226 19.5031L15.6219 19.504V19.6819H15.5708Z" fill="#66B933"/>
</g>
<defs>
<clipPath id="clip0_14_288">
<rect width="20" height="20" fill="white"/>
</clipPath>
</defs>
</svg>
