<svg width="82" height="86" viewBox="0 0 82 86" fill="none" xmlns="http://www.w3.org/2000/svg">
<g clip-path="url(#clip0_55_106)">
<path fill-rule="evenodd" clip-rule="evenodd" d="M22.2239 3.11993H25.8624L31.0137 14.1922H17.0513L22.2239 3.11993ZM12.9123 14.1922L18.0848 3.11993H13.0801L13.0389 3.1205C12.3001 3.14078 11.5765 3.33464 10.9265 3.68642C10.2811 4.03565 9.72636 4.53083 9.30636 5.13233L3.85405 12.6817L3.84564 12.6935C3.52235 13.1503 3.28648 13.6584 3.14551 14.1922H12.9123ZM3.76127 17.9422H12.8336L18.5983 36.4233L4.09451 18.3866C3.97419 18.2446 3.86299 18.0962 3.76127 17.9422ZM16.7618 17.9422H31.3016L24.3098 40.4499C24.2069 40.4571 24.1036 40.4607 24.0001 40.4607C23.928 40.4607 23.856 40.4589 23.7842 40.4553L16.7618 17.9422ZM35.2284 17.9422L29.5412 36.2499L43.9056 18.3866C44.0259 18.2447 44.1372 18.0962 44.2389 17.9422H35.2284ZM44.8545 14.1922C44.7135 13.6584 44.4777 13.1503 44.1546 12.6935L44.1462 12.6817L38.6937 5.13233C38.2737 4.5308 37.719 4.03565 37.0737 3.68642C36.4236 3.33464 35.7 3.14078 34.9611 3.1205L34.92 3.11993H29.9984L35.1495 14.1922H44.8545Z" fill="url(#paint0_linear_55_106)" stroke="#36A9BB" stroke-width="0.5"/>
</g>
<g clip-path="url(#clip1_55_106)">
<path fill-rule="evenodd" clip-rule="evenodd" d="M59.2239 28.1199H62.8624L68.0137 39.1922H54.0513L59.2239 28.1199ZM49.9123 39.1922L55.0848 28.1199H50.0801L50.0389 28.1205C49.3001 28.1408 48.5765 28.3346 47.9265 28.6864C47.2811 29.0357 46.7264 29.5308 46.3064 30.1323L40.8541 37.6817L40.8456 37.6935C40.5224 38.1503 40.2865 38.6584 40.1455 39.1922H49.9123ZM40.7613 42.9422H49.8336L55.5983 61.4233L41.0945 43.3866C40.9742 43.2446 40.863 43.0962 40.7613 42.9422ZM53.7618 42.9422H68.3016L61.3098 65.4499C61.2069 65.4571 61.1036 65.4607 61.0001 65.4607C60.928 65.4607 60.856 65.4589 60.7842 65.4553L53.7618 42.9422ZM72.2284 42.9422L66.5412 61.2499L80.9056 43.3866C81.0259 43.2447 81.1372 43.0962 81.2389 42.9422H72.2284ZM81.8545 39.1922C81.7135 38.6584 81.4777 38.1503 81.1546 37.6935L81.1462 37.6817L75.6937 30.1323C75.2737 29.5308 74.719 29.0357 74.0737 28.6864C73.4236 28.3346 72.7 28.1408 71.9611 28.1205L71.92 28.1199H66.9984L72.1495 39.1922H81.8545Z" fill="url(#paint1_linear_55_106)" stroke="#36A9BB" stroke-width="0.5"/>
</g>
<g clip-path="url(#clip2_55_106)">
<path fill-rule="evenodd" clip-rule="evenodd" d="M19.2239 47.1199H22.8624L28.0137 58.1922H14.0513L19.2239 47.1199ZM9.9123 58.1922L15.0848 47.1199H10.0801L10.0389 47.1205C9.30009 47.1408 8.57646 47.3346 7.92645 47.6864C7.28112 48.0357 6.72636 48.5308 6.30636 49.1323L0.854053 56.6817L0.845641 56.6935C0.522355 57.1503 0.286483 57.6584 0.145508 58.1922H9.9123ZM0.761272 61.9422H9.83364L15.5983 80.4233L1.09451 62.3866C0.974194 62.2446 0.862993 62.0962 0.761272 61.9422ZM13.7618 61.9422H28.3016L21.3098 84.4499C21.2069 84.4571 21.1036 84.4607 21.0001 84.4607C20.928 84.4607 20.856 84.4589 20.7842 84.4553L13.7618 61.9422ZM32.2284 61.9422L26.5412 80.2499L40.9056 62.3866C41.0259 62.2447 41.1372 62.0962 41.2389 61.9422H32.2284ZM41.8545 58.1922C41.7135 57.6584 41.4777 57.1503 41.1546 56.6935L41.1462 56.6817L35.6937 49.1323C35.2737 48.5308 34.719 48.0357 34.0737 47.6864C33.4236 47.3346 32.7 47.1408 31.9611 47.1205L31.92 47.1199H26.9984L32.1495 58.1922H41.8545Z" fill="url(#paint2_linear_55_106)" stroke="#36A9BB" stroke-width="0.5"/>
</g>
<defs>
<linearGradient id="paint0_linear_55_106" x1="24" y1="3.11993" x2="24" y2="40.4607" gradientUnits="userSpaceOnUse">
<stop stop-color="#005F71"/>
<stop offset="0.511667" stop-color="#00B5D7"/>
</linearGradient>
<linearGradient id="paint1_linear_55_106" x1="61" y1="28.1199" x2="61" y2="65.4607" gradientUnits="userSpaceOnUse">
<stop stop-color="#005F71"/>
<stop offset="0.511667" stop-color="#00B5D7"/>
</linearGradient>
<linearGradient id="paint2_linear_55_106" x1="21" y1="47.1199" x2="21" y2="84.4607" gradientUnits="userSpaceOnUse">
<stop stop-color="#005F71"/>
<stop offset="0.511667" stop-color="#00B5D7"/>
</linearGradient>
<clipPath id="clip0_55_106">
<rect width="42" height="42" fill="white" transform="translate(3)"/>
</clipPath>
<clipPath id="clip1_55_106">
<rect width="42" height="42" fill="white" transform="translate(40 25)"/>
</clipPath>
<clipPath id="clip2_55_106">
<rect width="42" height="42" fill="white" transform="translate(0 44)"/>
</clipPath>
</defs>
</svg>
