<svg width="46" height="54" viewBox="0 0 46 54" fill="none" xmlns="http://www.w3.org/2000/svg">
<g clip-path="url(#clip0_14_301)">
<path d="M7.25 22.6923C7.25 22.2781 7.58579 21.9423 8 21.9423H20.3077C20.998 21.9423 21.5577 21.3827 21.5577 20.6923V7C21.5577 6.58579 21.8935 6.25 22.3077 6.25H22.6923C23.1065 6.25 23.4423 6.58579 23.4423 7V20.6923C23.4423 21.3827 24.002 21.9423 24.6923 21.9423H37C37.4142 21.9423 37.75 22.2781 37.75 22.6923V23.3077C37.75 23.7219 37.4142 24.0577 37 24.0577H24.6923C24.002 24.0577 23.4423 24.6173 23.4423 25.3077V39C23.4423 39.4142 23.1065 39.75 22.6923 39.75H22.3077C21.8935 39.75 21.5577 39.4142 21.5577 39V25.3077C21.5577 24.6173 20.998 24.0577 20.3077 24.0577H8C7.58579 24.0577 7.25 23.7219 7.25 23.3077V22.6923Z" fill="black" stroke="#66B933" stroke-width="0.5"/>
</g>
<defs>
<clipPath id="clip0_14_301">
<rect width="46" height="54" fill="white"/>
</clipPath>
</defs>
</svg>
