<svg width="18" height="18" viewBox="0 0 18 18" fill="none" xmlns="http://www.w3.org/2000/svg">
<g clip-path="url(#clip0_26_181)">
<path fill-rule="evenodd" clip-rule="evenodd" d="M9 0V1.05882C13.3793 1.05882 16.9412 4.6207 16.9412 9C16.9412 13.3793 13.3793 16.9412 9 16.9412C4.6207 16.9412 1.05882 13.3793 1.05882 9C1.05882 6.49588 2.24576 4.1633 4.2353 2.66506V6.35294H5.29411V1.05882H0V2.11764H3.21459C1.19117 3.81919 0 6.32542 0 9C0 13.9627 4.0373 18 9 18C13.9627 18 18 13.9627 18 9C18 4.0373 13.9627 0 9 0Z" fill="#3E4157"/>
</g>
<defs>
<clipPath id="clip0_26_181">
<rect width="18" height="18" fill="white"/>
</clipPath>
</defs>
</svg>
