<svg width="100" height="90" viewBox="0 0 100 90" fill="none" xmlns="http://www.w3.org/2000/svg">
<path d="M39.9532 44.0578C35.4688 47.3344 30.0782 51.1734 26.2188 53.4938C24.4219 54.5766 23.4844 54.6891 23.1563 54.6891C23 54.6891 22.8907 54.6891 22.6719 54.4359C19.9532 51.3 21.7032 38.6156 23.125 32.4281C24.4219 33.1313 25.75 33.9188 27.0938 34.7625L25.7813 35.7469C24.4375 36.7031 23.6563 38.1797 23.6563 39.7547V42.8906C23.6563 44.4797 25.0938 45.7734 26.8594 45.7734C27.5469 45.7734 28.2032 45.5625 28.7657 45.1969L35.5625 40.6688C37.0625 41.7797 38.5157 42.9188 39.9532 44.0578Z" fill="url(#paint0_linear_26_308)"/>
<path d="M77.1219 55.2023C74.7094 53.9086 71.7922 51.5095 67.7547 48.188C65.6953 46.492 63.2516 44.4839 60.3906 42.2255C71.8469 34.1901 75.0453 32.7923 75.8687 32.5603C76.1937 32.5842 76.325 32.6798 76.4453 32.7937C78.2281 34.4545 77.975 41.0203 77.8063 45.3656C77.7484 46.8886 77.6922 48.3609 77.6922 49.6983C77.6937 52.0762 77.4172 53.917 77.1219 55.2023Z" fill="url(#paint1_linear_26_308)"/>
<path d="M22.9594 29.0869C21.9922 28.6045 20.7829 29.07 20.5141 30.0361C19.6188 33.2508 12.5985 65.0461 27.9485 55.8366C37.036 50.3845 53.5313 37.4175 62.0579 31.2778C63.9407 29.9222 85.9344 12.8588 87.6407 23.6025C89.5844 35.8523 89.3469 54.3009 87.6407 63.5105C87.2141 65.8125 84.2297 74.2556 73.9969 68.1159C69.9844 65.7084 53.5313 51.2325 53.5313 51.2325C52.0063 50.2819 57.6672 46.9477 58.6485 46.627C63.2376 45.135 68.8047 55.8422 77.5126 58.5141C78.436 58.7967 79.4126 58.358 79.6954 57.5184C80.1907 56.0588 80.8188 53.453 80.8188 49.6983C80.8188 42.023 82.7344 29.7436 75.7016 29.7436C70.5844 29.7436 33.0641 58.9078 26.2422 63.5119C26.2422 63.5119 14.5969 71.1295 12.5985 63.5119C10.0516 53.8017 10.8922 34.3477 12.5985 23.6039C12.5985 23.6039 14.3047 15.9286 24.5376 22.0683C24.5376 22.0683 45.0032 34.3477 46.7094 35.8833C48.2172 37.2403 41.5922 42.023 39.8876 40.4888L37.5219 38.3597C36.9219 37.8197 35.9719 37.7592 35.2922 38.2163L27.361 43.5038C26.7985 43.8834 25.9969 43.522 25.9969 42.8892V39.7589C25.9969 38.8252 26.4672 37.9448 27.2782 37.3613L29.7875 35.4783C30.6235 34.8764 30.6563 33.7205 29.8235 33.1144C27.5922 31.4944 24.7735 29.9911 22.9594 29.0869Z" fill="url(#paint2_linear_26_308)"/>
<defs>
<linearGradient id="paint0_linear_26_308" x1="30.6" y1="32.4281" x2="30.6" y2="54.6891" gradientUnits="userSpaceOnUse">
<stop stop-color="#6DC7FF"/>
<stop offset="1" stop-color="#E6ABFF"/>
</linearGradient>
<linearGradient id="paint1_linear_26_308" x1="69.1578" y1="32.5603" x2="69.1578" y2="55.2023" gradientUnits="userSpaceOnUse">
<stop stop-color="#6DC7FF"/>
<stop offset="1" stop-color="#E6ABFF"/>
</linearGradient>
<linearGradient id="paint2_linear_26_308" x1="50.0001" y1="19.6875" x2="50.0001" y2="70.3125" gradientUnits="userSpaceOnUse">
<stop stop-color="#1A6DFF"/>
<stop offset="1" stop-color="#C822FF"/>
</linearGradient>
</defs>
</svg>
