<svg width="100" height="92" viewBox="0 0 100 92" fill="none" xmlns="http://www.w3.org/2000/svg">
<path d="M97.9166 30.6667C95.5041 33.1411 89.7749 40.25 74.9999 40.25C69.4103 40.25 55.6895 38.3621 52.0833 38.3333C47.9624 38.3007 22.9166 38.9927 22.9166 59.4167C22.9166 75.4036 35.4208 76.2373 39.5833 76.6667C60.0749 76.6667 62.4999 68.0666 62.4999 59.4167C62.4999 56.4592 61.2499 53.13 58.4687 50.7093C56.2645 48.7887 54.9249 47.9167 49.9999 47.9167C47.6103 47.9167 39.5833 49.0993 39.5833 55.5833C39.5833 58.4583 43.7499 59.0832 43.7499 62.5849C43.7499 65.4657 41.1374 67.0833 38.3374 67.0833C34.6478 67.0833 31.2541 64.4479 31.2541 59.8613C31.2541 52.5282 38.0208 44.0833 49.9999 44.0833C64.5999 44.0833 67.5978 51.0677 71.9812 51.5967C79.127 52.44 86.9291 49.8333 91.4541 49.8333C85.3312 52.2809 82.4999 63.25 72.9166 63.25C72.9166 69.1284 66.3145 75.5646 64.5833 76.6667C68.8416 76.6667 72.1958 75.4285 74.9999 74.75C72.8728 76.1779 64.7395 80.5 39.5833 80.5C30.7978 80.5 10.4166 78.798 10.4166 61.3333C10.4166 42.7359 27.0291 34.5 52.0833 34.5C49.1541 33.0299 41.5416 30.6667 35.4166 30.6667C30.852 30.6053 25.652 32.89 21.5312 34.592C17.3645 36.3132 13.0499 36.5604 8.47284 36.4167C7.08325 36.3726 4.10617 35.6232 2.08325 34.5C17.8062 31.3797 15.7083 19.3392 35.4166 13.4167C28.8499 17.5605 24.8937 22.8639 24.9999 23C40.5728 15.1762 52.0416 12.8187 62.4999 11.5C51.7833 14.7162 44.3353 19.2836 35.4166 24.9167C35.4166 24.9167 41.852 23 49.9999 23C63.8416 23 73.7499 34.5 83.3333 34.5C88.077 34.5 97.9166 30.4865 97.9166 30.6667Z" fill="#FF5252"/>
<path d="M31.4646 59.8613C31.4646 64.4479 34.8584 67.0833 38.5479 67.0833C41.3479 67.0833 43.9604 65.4657 43.9604 62.5849C43.9604 59.0832 39.7938 58.4583 39.7938 55.5833C39.7938 47.3129 48.0084 44.9363 50.2104 44.0833C38.2334 44.0833 31.4646 52.5282 31.4646 59.8613Z" fill="#D50000"/>
<path d="M22.9167 59.4167C22.9167 35.696 47.9626 34.4674 52.0834 34.5C55.6896 34.5287 65.8271 33.9173 72.073 30.6705C65.7105 27.3259 58.7001 23 50.2126 23C42.0646 23 35.6292 24.9167 35.6292 24.9167C44.548 19.2836 51.9959 14.7162 62.7126 11.5C52.2542 12.8187 40.7855 15.1762 25.2126 23C25.1063 22.8639 29.0626 17.5605 35.6292 13.4167C15.9209 19.3392 18.0188 31.3797 2.2959 34.5C4.31881 35.6232 7.2959 36.3726 8.68548 36.4167C13.2626 36.5604 17.5792 36.3132 21.7438 34.592C25.8646 32.89 31.0646 30.6053 35.6292 30.6667C41.7542 30.6667 49.3667 33.0299 52.2959 34.5C27.2417 34.5 10.4167 42.7359 10.4167 61.3333C10.4167 78.6581 30.6771 80.4713 39.5751 80.4981C35.4042 80.0649 22.9167 75.394 22.9167 59.4167Z" fill="#D50000"/>
</svg>
