<svg width="100" height="90" viewBox="0 0 100 90" fill="none" xmlns="http://www.w3.org/2000/svg">
<g clip-path="url(#clip0_26_338)">
<path d="M98.0516 54.4598L96.8797 54.0281C96.4969 53.8861 96.0922 53.8172 95.6922 53.8172C95.4688 53.8172 95.2454 53.8383 95.0266 53.8819C94.9844 53.8692 94.9422 53.8566 94.9 53.8439C94.4813 53.4023 93.9125 53.0775 93.2594 52.9341L93.1313 52.8961C92.925 52.8356 92.6407 52.7512 92.2829 52.6852C91.5391 52.2928 90.8079 52.0467 90.0672 51.9455C89.9719 51.9075 89.875 51.8737 89.775 51.8442C89.5125 51.75 89.1141 51.6108 88.6141 51.5616C88.4391 51.5447 88.2094 51.5109 88.1063 51.4505C87.4547 51.0595 86.6579 50.8528 85.8032 50.8528C85.7188 50.8528 85.6375 50.8542 85.5563 50.8584C85.4938 50.8359 85.3657 50.7839 85.1532 50.67C84.5391 50.3438 83.9047 50.1947 83.4063 50.1145C82.7016 49.6533 81.9735 49.5155 81.6 49.4452C80.9719 49.2919 80.5891 49.23 80.1438 49.1569L79.8079 49.1006C79.6797 49.0781 79.5172 49.0303 79.311 48.9698C79.0407 48.8897 78.7032 48.7898 78.2969 48.7083C77.6766 48.0164 76.7422 47.5312 75.6141 47.5312C75.4297 47.5312 75.2157 47.5481 75.0329 47.5777C74.786 47.617 74.561 47.6789 74.3563 47.7534C74.3329 47.752 74.3094 47.752 74.2875 47.7506C74.2032 47.707 74.1157 47.6662 74.0282 47.6269C74.0297 47.5917 74.0329 47.5523 74.0344 47.5102C74.5422 47.0334 74.8672 46.3964 74.9032 45.6877L75.4797 34.0622C75.4969 33.7106 75.4407 33.3633 75.3172 33.0342C75.4594 32.535 75.4469 32.0091 75.2782 31.5127L75.3157 30.7603C75.3313 30.4481 75.2891 30.1359 75.1907 29.835C75.1204 29.6212 74.8735 28.8886 74.6485 28.4161C74.35 27.7917 73.85 27.0858 73.7047 26.8847C73.2891 26.3109 72.6579 25.8975 71.9329 25.7147C71.9266 25.7119 71.9204 25.7091 71.9141 25.7063L71.9125 25.6809C71.8813 25.2773 71.7563 24.8991 71.5579 24.5616L71.4875 23.5547C71.3844 22.0781 70.0282 20.9264 68.3844 20.9194C68.3797 20.9194 68.3735 20.9194 68.3688 20.9194C66.9547 20.9194 65.7469 21.7688 65.3672 22.9472C64.5938 23.4225 64.0704 24.2044 64.0094 25.1002L63.9282 26.3053C63.8688 26.4037 63.8157 26.5064 63.7688 26.6133L63.5235 27.1744L63.45 27.232C62.9313 27.6427 62.5797 28.1953 62.4469 28.8056L62.1594 30.1317L62.0547 29.7C62.1125 29.0222 62.211 27.7312 62.2079 26.9733C62.2063 26.5725 62.2063 26.3531 62.6469 25.5094C62.8782 25.0664 62.9782 24.5756 62.9344 24.0862L62.8313 22.9303C62.8094 22.68 62.75 22.4339 62.6547 22.1977C62.1188 20.8659 61.7938 20.4342 61.686 20.2922C61.5969 20.1755 61.5 20.0644 61.3922 19.9603C61.3063 19.8773 61.211 19.793 61.0907 19.7016C61.0782 19.6833 61.0641 19.6664 61.0516 19.6481L61.0391 19.5905C60.786 18.4261 59.7532 17.543 58.4782 17.3545C58.2813 16.9889 58 16.6683 57.6579 16.4123C57.386 15.0947 56.1047 14.1159 54.586 14.1159C54.5766 14.1159 54.5657 14.1159 54.5563 14.1159C52.9063 14.13 51.5532 15.2958 51.4657 16.778L51.3266 19.1377C51.1016 19.4794 50.9594 19.8605 50.9094 20.257L50.6641 20.5228C50.2032 21.0234 49.9485 21.652 49.9454 22.3031C49.9438 22.4198 49.9297 22.6547 49.9079 22.7798C49.8797 22.9359 49.811 23.1005 49.7891 23.1469C49.5766 23.5519 49.4938 23.9611 49.511 24.4083L49.5547 25.522C49.5563 25.553 49.561 25.5839 49.5625 25.6134L49.3297 24.6487C49.4938 24.1805 49.5188 23.677 49.3969 23.1905L49.3469 22.9894C49.3485 22.9486 49.35 22.9106 49.3516 22.8783C49.3563 22.7756 49.3688 22.5323 49.2954 21.7083C49.2579 21.2766 49.1094 20.8603 48.8625 20.4905C48.7875 20.1052 48.6235 19.7423 48.386 19.4217C48.3469 19.1109 48.2532 18.8156 48.111 18.5442L48.025 17.5542C47.9469 16.6528 47.4016 15.8766 46.6125 15.4153L46.6063 15.3084C46.5141 13.8572 45.2063 12.7083 43.5922 12.6591C43.5625 12.6562 43.5266 12.6563 43.4907 12.6563C41.9219 12.6563 40.5891 13.7067 40.3922 15.1172L40.1313 16.9833C40.0391 17.1197 39.9579 17.2645 39.8922 17.4164C39.061 17.7216 38.586 18.1533 38.3547 18.367C38.0891 18.5597 37.8766 18.7481 37.7188 18.8902C37.6657 18.938 37.6141 18.9872 37.5579 19.0308C36.9141 19.5202 36.2938 20.0517 35.7797 21.1205C35.2329 21.5775 34.875 22.2047 34.7969 22.8966L34.6485 24.21C34.6438 24.2044 34.6407 24.1973 34.636 24.1917L34.4422 22.0598C34.311 20.6058 32.9657 19.4836 31.3454 19.4752C31.3391 19.4752 31.3329 19.4752 31.3266 19.4752C30.0954 19.4752 29.0172 20.1192 28.511 21.0684C27.9625 21.2316 27.4766 21.5283 27.1063 21.9234C26.7454 21.9783 26.3969 22.0894 26.0766 22.2525C26.0782 22.2525 26.0782 22.2511 26.0782 22.2511C26.0766 22.2511 25.9672 22.3003 25.7782 22.3678C25.7188 22.3791 25.6641 22.3889 25.6547 22.3903C25.1625 22.4761 24.6969 22.6687 24.3047 22.9486L23.5735 23.4703C22.8735 23.9709 22.4438 24.7177 22.3954 25.5206L22.3672 25.9917L22.0657 26.5837C21.8844 26.9395 21.7875 27.3248 21.7813 27.7158L21.7672 28.5975C21.7657 28.7297 21.7735 28.8619 21.7922 28.9927C21.7891 29.0433 21.7875 29.0925 21.7875 29.1445L21.786 29.3906C21.786 29.4623 21.7875 29.5341 21.7938 29.6044C21.7875 29.6789 21.7844 29.7548 21.7844 29.8294V31.9359L21.3032 33.6867C21.2469 33.8934 21.2157 34.1044 21.2125 34.3153C21.1204 34.2942 21.0141 34.2703 20.8907 34.2408C20.6063 34.1733 20.3782 34.1381 20.1375 34.1072C20.1329 34.1072 20.1297 34.1058 20.1266 34.1058C19.9563 33.9666 19.8125 33.8625 19.711 33.7992C19.3813 33.5897 19.0469 33.4505 18.7313 33.3562C18.0829 32.5505 17.0954 32.2172 16.4141 32.1511C16.3032 32.1398 16.1907 32.1342 16.0797 32.1342C15.6969 32.1342 15.3266 32.1933 14.9766 32.3016C14.6829 32.2678 14.3579 32.2495 13.9954 32.2495C13.7985 32.2495 13.5766 32.2537 13.3235 32.2636C13.3157 32.2636 13.3094 32.2636 13.3016 32.265C12.8469 32.1455 12.361 32.0977 11.7704 32.0709C11.686 32.0667 11.5969 32.0569 11.5047 32.0484C11.2329 32.0231 10.8938 31.9908 10.5079 31.9908C10.3391 31.9908 10.1719 31.9978 10.0079 32.0105C9.52348 32.0498 9.06098 32.1483 8.60942 32.3114C7.94848 31.7967 7.08598 31.4887 6.16254 31.4887C5.55161 31.4887 4.95004 31.628 4.42348 31.8923C4.34223 31.9331 4.26879 31.9725 4.20004 32.0105C4.12973 31.9992 4.05786 31.988 3.98286 31.9795C3.83911 31.9612 3.64692 31.95 3.50161 31.95C2.36567 31.95 1.29536 32.4562 0.640668 33.3056C-0.0171448 34.1578 -0.17652 35.2336 0.214105 36.1828C0.526605 36.9408 1.16098 37.5947 1.92973 38.0236C1.90942 39.4383 2.78129 40.7067 4.26723 41.2931L4.36723 41.3437C4.78442 41.5491 5.56254 41.933 6.63442 41.933C6.70317 41.933 6.77036 41.9316 6.83754 41.9287C7.12192 42.2606 7.40629 42.5039 7.59379 42.6642C8.0141 43.0228 8.53754 43.2773 9.10004 43.4039C9.22973 43.7977 9.45317 44.2125 9.82817 44.595C10.5125 45.2925 11.4516 45.6581 12.6219 45.682C12.6454 45.682 12.7454 45.6834 12.7688 45.6834C13.736 45.6834 14.4969 45.4795 15.086 45.2011C15.2532 45.2292 15.4235 45.2503 15.5969 45.2616C15.8625 45.2784 16.2094 45.3628 16.7719 45.8564C17.3188 46.3612 18.0547 46.9097 19.3391 47.1122C19.5266 47.1516 19.7235 47.1797 19.9297 47.198C19.9438 47.205 19.9579 47.2106 19.9719 47.2177C20.6938 47.5481 21.4032 47.5791 21.9204 47.6016C21.9391 47.603 21.9579 47.603 21.9782 47.6044C22.0141 47.6184 22.0516 47.6311 22.0891 47.6452C22.1219 47.9123 22.1985 48.1711 22.311 48.4158L22.4094 59.1722C22.4172 60.1101 22.9375 60.9412 23.7313 61.4461L23.7266 64.0167C23.7266 64.2881 23.7688 64.5581 23.8547 64.8169L23.9563 65.1277L23.9813 67.5717C23.9829 67.7475 24.0032 67.9219 24.0407 68.0934L24.3219 69.3647L24.6032 73.6495C24.7 75.1219 26.0438 76.2778 27.6844 76.2961C27.6969 76.2961 27.711 76.2961 27.7235 76.2961C29.3454 76.2961 30.7 75.1781 30.8375 73.7198L31.2204 69.6262C31.2454 69.3633 31.2282 69.0989 31.1704 68.8401V68.6166L31.3047 68.3648C31.4875 68.0217 31.5907 67.6491 31.6094 67.2694C32.0766 66.8053 32.3735 66.1978 32.411 65.5256L32.95 55.9209C32.9625 55.6931 32.9454 55.4639 32.8969 55.2417L32.961 55.1081C33.1344 54.7453 33.2204 54.353 33.2141 53.9578L33.2 53.1112C33.1969 52.927 33.1735 52.7428 33.1313 52.5642V52.2492C33.1938 52.1058 33.2422 51.9553 33.2782 51.7992L33.5063 50.8078C33.5266 50.7178 33.5422 50.6278 33.5532 50.5364C33.7641 50.6222 33.9829 50.6869 34.2047 50.7277C34.336 50.7684 34.4704 50.8022 34.6079 50.8275L36.6485 51.8062C36.8188 51.8878 36.9969 51.9553 37.1797 52.0073V52.8511C37.1797 53.1619 37.2375 53.4712 37.35 53.7652L37.7704 54.8662L37.775 57.4509C37.775 57.6759 37.8063 57.9009 37.8657 58.1189L38.1485 59.1497L38.1016 62.5908C38.1 62.6667 38.1032 62.7426 38.1094 62.8172L38.5516 68.6123C38.5829 69.0145 38.7047 69.39 38.9016 69.7261L38.9 70.3955C38.8985 70.7287 38.9641 71.0578 39.0907 71.37L39.2282 71.7089L39.4782 74.7422C39.5985 76.2061 40.95 77.3409 42.5813 77.3466C42.586 77.3466 42.5907 77.3466 42.5954 77.3466C44.2204 77.3466 45.5766 76.2244 45.7094 74.7647L46.175 69.6783C46.1813 69.608 46.1844 69.5377 46.186 69.4687L46.211 66.503L46.3766 65.9573C46.4516 65.7098 46.4891 65.4553 46.4875 65.1994L46.4797 63.9253C46.4782 63.7017 46.4469 63.4781 46.3875 63.2616L46.2719 62.8425L46.2782 61.7231C47.0141 61.2506 47.5157 60.4983 47.5829 59.6278L47.9141 55.35C48.2344 55.4372 48.5704 55.4822 48.9141 55.4822C49.2922 55.4822 49.8141 55.4245 50.3844 55.1911C50.6375 55.1658 50.886 55.1194 51.1313 55.0505L51.1266 56.1966L50.9297 57.0937C50.8344 57.5269 50.8547 57.9755 50.9875 58.4016L51.2969 59.3916L51.6172 64.4639C51.6625 65.1783 52 65.8181 52.5235 66.2906L52.7579 69.8119C52.8547 71.2645 54.1657 72.4106 55.7813 72.4556C55.8141 72.457 55.8454 72.457 55.8782 72.457C57.4532 72.457 58.7875 71.3995 58.9782 69.9834L59.6125 65.2823C59.6282 65.1698 59.636 65.0559 59.636 64.942V63.6989L60.011 62.9044C60.1766 62.5542 60.2625 62.1773 60.261 61.7962L60.2485 56.3625C60.325 56.3414 60.4016 56.3175 60.4797 56.2908C60.5282 56.2964 60.611 56.3077 60.7422 56.3358C60.9266 56.3752 61.1094 56.4187 61.2922 56.4623C61.3844 56.4834 61.4766 56.5059 61.5688 56.527C62.1 56.8912 62.7547 57.1092 63.4579 57.1387C63.5094 57.8672 63.8688 58.5169 64.4172 58.9894L64.4079 60.217C64.4063 60.4589 64.4391 60.7008 64.5063 60.9356L64.7719 61.868L64.8063 65.0911C64.8063 65.1417 64.8094 65.1937 64.8125 65.2444L65.2844 71.8087C65.3907 73.2797 66.7407 74.4286 68.3782 74.4398C68.386 74.4398 68.3954 74.4398 68.4032 74.4398C70.0313 74.4398 71.3875 73.3148 71.5172 71.8523L71.8344 68.2861C72.5563 67.8094 73.0454 67.057 73.1047 66.1936L73.6891 57.7898C74.1875 58.0711 74.6485 58.1906 74.8313 58.237C75.0204 58.2862 75.2141 58.3186 75.4094 58.3341C75.4485 58.3481 75.486 58.3608 75.5266 58.3734C75.5766 58.3903 75.6282 58.4044 75.6782 58.4184C76.311 58.9711 76.9844 59.1877 77.5141 59.2636C78.2016 59.5828 78.975 59.7741 79.6813 59.7741C79.7454 59.7741 79.8094 59.7727 79.8735 59.7698C79.961 59.8148 80.0438 59.8556 80.1235 59.8936C80.6125 60.1312 81.1641 60.2564 81.7188 60.2564C82.6438 60.2564 83.5454 59.9091 84.1938 59.303C84.3204 59.1848 84.436 59.0583 84.5391 58.9247C84.786 58.9148 85.0047 58.8853 85.1875 58.8502C85.2485 58.853 85.311 58.8544 85.3719 58.8544C85.4797 58.8544 85.5875 58.8487 85.6954 58.8389C85.8282 58.8909 85.9625 58.9402 86.0797 58.9795C86.6938 59.1877 87.2719 59.2889 87.8469 59.2889C88.2297 59.2889 88.6079 59.2425 88.9719 59.1525C89.2547 59.2284 89.5907 59.2861 89.9672 59.2903C89.986 59.2987 90.0032 59.3058 90.0219 59.3142C90.5157 59.5294 90.9579 59.6222 91.2219 59.677C91.5391 59.7431 91.8219 59.7727 92.1 59.7727C92.1657 59.7727 92.2297 59.7712 92.2938 59.7684C92.5235 59.9344 92.811 60.0975 93.1641 60.2212C93.5485 60.3562 93.8938 60.4041 94.1735 60.4237C94.25 60.4448 94.3766 60.4856 94.4829 60.5278C94.8829 60.6881 95.3219 60.7725 95.761 60.7725C95.8797 60.7725 95.9922 60.7669 96.0985 60.7556C96.1063 60.757 96.1157 60.757 96.1235 60.7584C96.2329 60.7683 96.3563 60.7753 96.4657 60.7753C97.1954 60.7753 98.2516 60.5616 99.1579 59.5448C99.7141 58.9922 100.002 58.2427 99.9704 57.4987C100.186 56.2106 99.3969 54.9506 98.0516 54.4598ZM3.99848 35.7427C3.98911 35.7427 3.98129 35.7427 3.97192 35.7427C3.95473 35.7469 3.93754 35.7483 3.91879 35.7483C3.67192 35.7483 3.24692 35.4544 3.14067 35.1984C3.07348 35.0367 3.23442 34.7583 3.49848 34.7583C3.51411 34.7583 3.53129 34.7597 3.54692 34.7611C3.90161 34.8061 4.21098 34.9116 4.33598 35.273C4.46254 35.6358 4.39848 35.7427 3.99848 35.7427ZM89.036 54.7116C89.111 54.7045 89.1844 54.7017 89.2563 54.7017C89.7844 54.7017 90.2641 54.8747 90.7391 55.1306C90.6625 55.177 90.6282 55.2698 90.5141 55.2937C90.4125 55.3148 90.2985 55.3247 90.1782 55.3247C89.6922 55.3247 89.1079 55.1686 88.9172 54.9675C88.7704 54.8142 88.8797 54.7256 89.036 54.7116ZM15.7563 35.2055C15.7954 35.1014 15.8985 34.9467 16.075 34.9467C16.2547 34.9636 16.2547 35.1 16.2625 35.3306C16.2657 35.4487 16.3063 35.5191 16.3485 35.5894C16.2969 35.5978 16.2485 35.6006 16.2016 35.6006C15.8844 35.6006 15.6719 35.4305 15.7563 35.2055ZM5.30004 34.7048C5.59536 34.5684 5.69692 34.4672 5.93598 34.3477C6.00473 34.3139 6.08129 34.2984 6.15942 34.2984C6.41098 34.2984 6.67817 34.4587 6.73286 34.6823C6.90629 35.3995 6.37192 36.0127 5.57817 36.0127C5.57504 36.0127 5.57192 36.0127 5.56879 36.0127C5.19223 36.0098 4.90317 35.768 4.78129 35.37C4.66567 34.9945 5.04848 34.8216 5.30004 34.7048ZM7.24379 38.9109C7.01723 39.06 6.81723 39.1148 6.63129 39.1148C6.23911 39.1148 5.90786 38.8659 5.51879 38.7127C5.08754 38.5425 4.97192 38.1909 5.09692 37.7761C5.16098 37.5623 5.14223 37.3205 5.27817 37.1362C5.38598 36.9928 5.62348 36.9239 5.81879 36.8747C5.91879 36.8494 6.03129 36.7327 6.12973 36.7327C6.13129 36.7327 6.13286 36.7327 6.13442 36.7327C6.30004 36.7397 6.45004 36.9042 6.60317 37.0617C6.63598 37.0955 6.6766 37.1025 6.71723 37.1025C6.74692 37.1025 6.77817 37.0983 6.80786 37.0983C6.84223 37.0983 6.87504 37.1025 6.90317 37.1222C7.17036 37.3064 7.2641 37.5539 7.50785 37.7859C7.65629 37.9406 7.72348 38.0517 7.71567 38.3836C7.70473 38.9377 7.46567 38.7647 7.24379 38.9109ZM13.9297 42.4983C13.6282 42.7936 13.1875 42.8653 12.7657 42.8653C12.7391 42.8653 12.7141 42.8653 12.6875 42.8639C12.15 42.8527 11.9922 42.7345 12.075 42.023C12.0829 41.9611 12.1422 41.8205 12.6188 41.8205C12.6375 41.8205 12.6563 41.8205 12.6766 41.8205C12.6813 41.8205 12.686 41.8205 12.6907 41.8205C12.9266 41.8205 12.8938 41.6883 13.0469 41.6883C13.2219 41.6883 13.6172 41.7248 13.7938 42.0019C13.9047 42.1762 14.1672 42.1481 14.3063 42.2198C14.1891 42.3197 14.1125 42.3197 13.9297 42.4983ZM33.6297 47.3484C33.1829 47.1558 32.8375 47.0658 32.8922 46.9097C32.9125 46.8506 32.961 46.8253 33.0297 46.8253C33.4063 46.8253 34.4016 47.5889 34.8375 47.9686C34.575 47.8167 34.0563 47.5312 33.6297 47.3484ZM47.1454 51.3C46.986 51.3014 46.7735 51.4983 46.7735 51.4983L46.4625 51.4941L46.061 51.8302L45.8313 51.8231L45.6782 51.9609L45.7188 51.7626C45.7188 51.7626 46.1469 51.4111 46.1938 51.3478C46.2938 51.21 46.3579 50.76 46.3579 50.76C46.3579 50.76 46.511 50.8036 46.7204 50.8036L46.9063 50.4731L47.1891 50.8416L47.2282 51.1509C47.2282 51.1509 47.7079 51.3956 47.6047 51.4673C47.6016 51.4687 47.5985 51.4702 47.5938 51.4702C47.536 51.4702 47.3454 51.3 47.1516 51.3C47.1469 51.3 47.1469 51.3 47.1454 51.3ZM78.0204 56.4877C77.9454 56.4877 77.8329 56.4159 77.6844 56.2177C77.6844 56.2177 78.1625 56.2205 78.1329 56.3695C78.1204 56.4384 78.0829 56.4877 78.0204 56.4877ZM79.675 56.9616C79.3454 56.9616 78.7547 56.7295 78.5141 56.4905C78.5579 56.4891 78.6016 56.4877 78.6438 56.4877C79.1329 56.4877 79.5172 56.617 79.9016 56.8575C79.8813 56.9306 79.7954 56.9616 79.675 56.9616ZM81.7125 57.4425C81.675 57.4425 81.636 57.4341 81.6 57.4172C81.261 57.2527 80.9235 57.0727 80.6219 56.8575C80.2782 56.6873 80.575 56.2781 80.3735 56.243C80.4469 56.1839 80.5157 56.0897 80.6594 56.0897C80.7219 56.0897 80.7969 56.108 80.8938 56.153C81.0688 56.2373 81.2329 56.3484 81.4157 56.4131C81.925 56.5819 81.9016 56.6016 81.9313 56.9602C81.936 57.0122 82.0204 57.098 82.0235 57.1641C82.0297 57.3075 81.8719 57.4425 81.7125 57.4425ZM92.0938 56.9616C92.0547 56.9616 92.011 56.9573 91.9641 56.9475C91.7704 56.9067 91.5704 56.8673 91.3922 56.79C91.0172 56.6269 90.6516 56.4652 90.2297 56.4652C90.1672 56.4652 90.1032 56.4694 90.0391 56.4764C90.025 56.4778 90.011 56.4792 89.9969 56.4792C89.8407 56.4792 89.6672 56.3892 89.5141 56.3245C89.3235 56.2444 89.136 56.1966 88.9485 56.1966C88.7688 56.1966 88.5907 56.2402 88.4079 56.3386C88.2219 56.4384 88.0329 56.4778 87.8422 56.4778C87.6219 56.4778 87.3985 56.4244 87.1782 56.3498C86.875 56.2472 86.2797 55.9912 86.2797 55.9912C86.2797 55.9912 86.1782 55.987 86.0407 55.987C85.8266 55.987 85.5219 55.9955 85.3688 56.0419C85.375 55.8914 85.3532 55.6889 85.1469 55.6889C85.1204 55.6889 85.0922 55.6917 85.0594 55.6987C84.7719 55.7606 84.9063 55.9069 85.0219 55.9941C84.8188 56.0109 84.586 56.1122 84.3766 56.1122C84.361 56.1122 84.3454 56.1122 84.3297 56.1108C84.1094 56.0925 83.9219 55.9392 83.7032 55.6917C83.6141 55.5905 83.4719 55.4555 83.3422 55.4386C83.3375 55.4386 83.3329 55.4372 83.3282 55.4372C83.2563 55.4372 83.2063 55.5159 83.1047 55.5202C83.0079 55.5202 82.7797 55.2783 82.6047 55.2572C82.2625 55.215 82.0016 55.0673 81.8094 55.0055C81.5641 54.9281 81.3688 54.9155 81.2688 54.9155C81.2204 54.9155 81.1938 54.9183 81.1938 54.9183C81.1938 54.9183 80.8891 54.7467 80.736 54.6975C80.6 54.6539 80.4985 54.6286 80.425 54.6286C80.2625 54.6286 80.2266 54.7453 80.211 55.0237C80.2454 55.3866 80.0563 55.5131 79.9469 55.7198C79.9407 55.7325 79.9094 55.7452 79.8641 55.7452C79.7985 55.7452 79.7016 55.7198 79.6079 55.6327C79.6125 55.5975 79.6172 55.5623 79.6219 55.5286C79.7407 55.4569 79.9063 55.4062 79.9672 55.305C80.0313 55.1967 80.05 55.1039 80.011 54.9802C79.9907 54.9169 79.9532 54.7636 79.8485 54.7327C79.8438 54.7312 79.8391 54.7312 79.8344 54.7312C79.7657 54.7312 79.6016 54.8283 79.5329 54.8283C79.5282 54.8283 79.525 54.8283 79.5204 54.8269C79.4469 54.8086 79.4016 54.6497 79.311 54.6497C79.2907 54.6497 79.2688 54.6567 79.2438 54.6764C79.1032 54.7805 79.1969 54.8916 79.2188 54.99C79.2922 55.3064 79.1204 55.5511 78.7875 55.5652C78.7782 55.5652 78.7672 55.5652 78.7579 55.5652C78.5797 55.5652 78.4719 55.4948 78.5204 55.2994C78.5422 55.2108 78.5641 55.1222 78.5829 55.0322C78.6454 54.7383 78.5172 54.5794 78.5172 54.5794C78.5172 54.5794 77.436 54.2447 77.1329 54.1955C77.1079 54.1912 77.0813 54.1898 77.0547 54.1898C76.8969 54.1898 76.7344 54.2587 76.7047 54.3389C76.5891 54.6539 76.6594 54.7242 76.8391 54.9352C76.8782 54.9816 76.9297 55.0448 76.9922 55.08C77.1579 55.1742 77.3157 55.253 77.1672 55.4737C77.0563 55.6397 76.9313 55.7466 76.7422 55.7466C76.6938 55.7466 76.6422 55.7395 76.5844 55.7255C76.2813 55.627 76.1735 55.5384 75.6891 55.53C75.5375 55.4906 75.3719 55.4386 75.2594 55.3444C74.8641 55.0209 74.3625 54.9281 73.8438 54.9281C73.8407 54.9281 73.8391 54.9281 73.836 54.9281C73.7079 54.9281 73.575 54.8367 73.5016 54.7467C73.2547 54.4472 73.0641 54.3769 72.6907 54.367C72.4032 54.3586 71.9688 54.3741 71.6844 54.3459C71.661 54.3473 71.636 54.3473 71.6094 54.3473C71.3782 54.3473 71.1 54.2981 71.1 54.2981L71.0563 54.0436L70.4797 54.0183L70.6954 55.7367L69.9813 66.0122L69.7813 58.5703L69.6704 58.5534L69.4875 59.2073V63.6891L68.9829 65.0348L68.3969 71.6217L67.925 65.0573L67.886 61.4925L67.525 60.2297L67.5391 58.3045L67.7563 57.5409L67.7547 54.1561L67.3985 53.2477C67.3875 53.2477 67.3094 53.2505 67.0563 53.3081C67.0391 53.3123 67.0172 53.3137 66.9938 53.3137C66.8672 53.3137 66.6813 53.2631 66.6813 53.2631L66.5657 56.9475L66.45 53.2884C66.1641 53.4333 66.0313 53.5134 65.8532 53.6372C65.3235 54.0098 64.7875 54.2109 64.3641 54.2109C64.3141 54.2109 64.2657 54.2081 64.2188 54.2025C64.1891 54.1983 64.1625 54.1969 64.1344 54.1969C63.911 54.1969 63.7657 54.308 63.6266 54.3206C63.6204 54.3206 63.6141 54.322 63.6063 54.322C63.5282 54.322 63.4344 54.2869 63.4125 54.2391C63.2969 53.9845 63.0563 53.9522 62.8094 53.9016C62.3594 53.8073 61.9157 53.692 61.4657 53.595C61.1157 53.5191 60.7641 53.467 60.4157 53.467C60.0657 53.467 59.7188 53.5191 59.3735 53.6484C59.3297 53.6653 59.275 53.6836 59.225 53.6836C59.2 53.6836 59.1766 53.6794 59.1563 53.6667C59.0282 53.5922 58.9032 53.5655 58.7782 53.5655C58.5985 53.5655 58.425 53.6203 58.2532 53.6611C58.1704 53.6808 58.1 53.6892 58.0391 53.6892C57.7063 53.6892 57.6829 53.4347 57.6829 53.4347L57.5485 53.325L57.1094 54.8466L57.125 61.7934L56.4985 63.1167L56.5 64.9336L55.8657 69.6347L55.4516 63.4078L55.5063 59.8387L55.1 58.8516C55.1 58.8516 54.836 62.7314 54.725 64.2966L54.386 58.9177L53.9844 57.6323L54.2391 56.4708L54.2547 52.6711L54.0375 52.5909C54.0375 52.5909 53.7688 51.9173 53.5829 51.9173C53.3969 51.9173 51.8969 51.8358 51.8969 51.8358C51.8969 51.8358 50.8032 52.1381 50.2954 52.3252C50.1454 52.38 50.0297 52.3941 49.9141 52.3941C49.7891 52.3941 49.6625 52.3772 49.4907 52.3772C49.4469 52.3772 49.3375 52.4728 49.2094 52.5544C49.1016 52.6233 49 52.6627 48.9016 52.6627C48.8 52.6627 48.7047 52.6205 48.611 52.5262C48.3657 52.2773 48.1391 52.2703 48.111 52.2703C48.1094 52.2703 48.1079 52.2703 48.1079 52.2703C48.1079 52.2703 47.6938 52.4194 47.6329 52.4194C47.6313 52.4194 47.6297 52.4194 47.6282 52.4194C47.4657 52.3856 47.3016 52.3477 47.1485 52.2872C47.1297 52.2802 47.1516 52.0791 47.1516 52.0791L47.5329 51.8977L47.7875 51.9792L47.9391 52.0861L48.1735 52.0481L48.3829 52.1691C48.3829 52.1691 48.486 52.1508 48.5407 52.1508C48.5485 52.1508 48.5563 52.1508 48.561 52.1522C48.5875 52.1522 48.6329 51.7725 48.6329 51.7725L48.686 52.1873C48.7047 52.1916 48.7235 52.193 48.7391 52.193C48.9438 52.193 48.9891 51.9258 48.9891 51.7992C48.9891 51.622 48.8688 51.4266 48.8688 51.4252L48.7719 51.3956L48.6188 51.5447L48.4829 51.3084L48.0813 51.0736L47.4469 51.0497L46.9922 50.3156L46.6422 49.7039C46.4719 49.7039 46.3547 49.7011 46.2625 49.7011C46.2157 49.7011 46.175 49.7011 46.136 49.7039C46.1344 49.7039 46.1313 49.7039 46.1297 49.7039C45.9938 49.7039 45.8375 49.5141 45.8375 49.5141C45.8375 49.5141 45.6454 49.6659 45.2844 49.6659C45.2547 49.6659 45.2235 49.6645 45.1922 49.6631L45.0735 51.5573C45.0735 51.5573 45.5672 51.6291 45.5829 51.7303C45.5954 51.8119 45.4829 51.9412 45.3579 51.9412C45.2329 51.9412 45.1485 51.8119 45.1485 51.8119L45.0407 51.7978L44.45 59.4253L44.3829 51.5897L43.9375 51.4434L43.7516 52.2253L43.7344 59.2087L43.1422 60.9272L43.1297 63.173L43.3407 63.9337L43.3485 65.2078L43.075 66.1078L43.0469 69.4406L42.5891 74.5312L42.3079 71.1056L42.0188 70.3983L42.0329 64.6102L41.8938 63.5161C41.8938 63.5161 41.7204 67.0852 41.6625 68.4155L41.2204 62.6203L41.2719 58.8192L40.8938 57.4397L40.8875 54.3881L40.2969 52.8441V50.0527C40.2969 50.0527 39.6657 49.9008 39.4219 49.7194C39.1954 49.5506 38.9 49.3003 38.9 49.3003L38.111 49.3186L35.5782 48.1036L35.2313 48.067L34.8016 47.4877L35.2829 47.9264C35.2829 47.9264 37.0438 48.2653 37.6844 48.3567C37.7547 48.3666 37.8344 48.3764 37.9079 48.3764C38.1 48.3764 38.2547 48.3075 38.136 47.9869C38.1235 47.9531 38.1563 47.8997 38.1797 47.8617C38.3563 47.5706 38.4079 47.3344 37.9141 47.3105C37.8719 47.3091 37.7344 47.2345 37.725 47.2036C37.6844 47.0686 37.6532 46.845 37.4938 46.845C37.4891 46.845 37.486 46.845 37.4813 46.845C37.4594 46.8464 37.4375 46.8478 37.4157 46.8478C37.1079 46.8478 36.7797 46.703 36.586 46.6509C36.525 46.6355 36.4641 46.6298 36.411 46.6298C36.3016 46.6298 36.2204 46.6523 36.2204 46.6523C36.2204 46.6523 36.0125 46.4527 35.9141 46.4287C35.8454 46.4119 35.7891 46.4091 35.7391 46.4091C35.6875 46.4091 35.6422 46.4133 35.5938 46.4133C35.575 46.4133 35.5563 46.4133 35.536 46.4105C35.4969 46.4076 35.4594 46.4062 35.425 46.4062C35.0047 46.4062 34.9282 46.6397 34.786 46.9744C34.2735 46.3542 34.0485 46.5764 33.6797 46.4119C33.4875 46.3261 33.1266 46.2136 33.1266 46.2136C33.1266 46.2136 32.8516 46.3233 32.711 46.4245C32.675 46.4512 32.6 46.4653 32.5313 46.4653C32.475 46.4653 32.425 46.4555 32.4079 46.4358C32.2422 46.2361 32.0125 46.1123 31.711 46.1123C31.6688 46.1123 31.625 46.1152 31.5797 46.1194C31.55 46.1222 31.5204 46.1236 31.4907 46.1236C31.2266 46.1236 30.9907 46.0027 30.9907 46.0027L30.9672 46.6959L30.5532 47.8139L30.4422 50.2298L30.2141 51.2212L30.1485 46.0237L29.9891 46.0167L30.0032 53.0283L30.0719 53.1422L30.086 53.9887L29.7297 54.7341L29.6907 55.5145L29.825 55.7691L29.286 65.3737L29.1922 58.822L29.05 58.5506L28.8922 62.6358L28.4407 63.9084L28.4813 67.1372L28.0391 67.9655V69.1805L28.1 69.3802L27.7172 73.4737L27.4235 68.9962L27.1016 67.5366L27.0735 64.6987L26.8469 64.0097L26.8516 60.878L26.5047 58.7334L26.5032 54.0323L26.2829 53.3039L26.3016 50.4802L26.1188 49.7953L25.5266 59.1356L25.4204 47.5186L25.186 47.3175C25.186 47.3175 25.1813 45.9337 25.1813 45.3052C25.0282 45.3291 24.8797 45.3403 24.7344 45.3403C24.061 45.3403 23.461 45.1083 22.85 44.8748C22.5079 44.7441 21.636 44.8172 21.3813 44.7005C21.1188 44.5809 20.8282 44.3841 20.8282 44.3841C20.8282 44.3841 20.675 44.3981 20.4844 44.3981C20.3141 44.3981 20.1157 44.3869 19.9672 44.3447C19.3469 44.2702 19.2172 44.0705 18.9454 43.8314C18.0594 43.0552 17.0625 42.5292 15.8157 42.4477C15.411 42.4209 15.1032 42.2409 14.8094 41.9822C14.3907 41.6137 13.8844 41.4281 13.3125 41.4281C13.2094 41.4281 13.1047 41.4337 12.9969 41.4464C12.9516 41.452 12.9047 41.4534 12.8579 41.4534C12.7313 41.4534 12.6016 41.4352 12.4875 41.3972C11.9266 41.2102 11.3735 41.0034 10.8204 40.7995C10.6141 40.7236 10.2157 40.5323 10.2157 40.5323C10.2157 40.5323 10.0407 40.6181 9.9516 40.6687C9.94067 40.6744 9.92661 40.6772 9.90942 40.6772C9.85629 40.6772 9.78129 40.6519 9.74692 40.6223C9.36254 40.2933 9.00161 39.96 8.9641 39.4256C8.95004 39.2344 9.00161 39.1289 8.91411 39.0502C8.62661 38.79 8.2641 38.4792 8.26723 38.1164C8.27036 37.7058 8.24223 37.1447 8.25629 36.7341C8.28129 36.0478 8.63286 35.5683 9.27192 35.1689C9.59692 34.965 9.91723 34.8412 10.2813 34.8117C10.3547 34.8061 10.4297 34.8033 10.5047 34.8033C10.8766 34.8033 11.2672 34.8637 11.6047 34.8806C12.6985 34.9312 12.4329 35.0283 12.7188 35.0634C12.8391 35.0775 12.9922 35.0845 13.1407 35.0845C13.2485 35.0845 13.3547 35.0817 13.4422 35.0747C13.6485 35.0677 13.8297 35.0634 13.9891 35.0634C15.0016 35.0634 15.1954 35.2209 15.8938 35.6611C16.6297 36.1252 17.4875 35.8341 17.9063 36.0998C18.0422 36.187 18.3985 36.5752 18.8329 36.7073C19.4907 36.9084 19.6829 36.8634 20.0844 36.9591C21.0047 37.1784 21.3875 37.2347 21.8172 37.2347C21.95 37.2347 22.0875 37.2291 22.2469 37.222L22.311 37.3162L22.586 37.35L22.7969 37.1981L24.8719 37.2347L24.7469 35.5373L24.3282 34.3617L24.9 32.2791V29.8308L24.9813 29.7717L24.986 29.5003L24.9032 29.4089C24.9047 29.2598 24.9047 29.1628 24.9047 29.1628L24.9907 29.1502L24.9954 28.7381L24.8844 28.6411L24.8985 27.7594L25.4485 26.6808L25.5094 25.6753L26.2407 25.1536C26.2407 25.1536 26.6266 25.0875 26.7641 25.0397C27.3188 24.8498 27.6157 24.698 27.6157 24.698C28.7125 24.615 29.2766 24.3759 29.2766 24.3759L29.4875 23.7389C29.5735 23.992 29.7813 24.6952 29.7813 24.6952L30.186 24.5573C30.186 24.5573 30.4235 24.9497 30.6672 24.9778L30.8407 24.3225L31.1032 24.3998L31.3219 22.2877L31.6641 26.0677L31.8094 26.363C31.8094 26.363 31.9094 25.7245 31.9375 25.5966C31.9625 25.9495 32.1422 27.0169 32.1422 27.0169C32.1422 27.0169 32.6672 27.9 32.8219 28.3444C32.8219 28.3444 32.6516 28.8323 32.5141 29.572C32.3297 29.783 32.0079 29.9841 32.0375 30.5916C32.0641 31.1541 32.1563 31.6181 32.1563 31.6181L31.8922 31.898L31.925 36.1139L31.175 38.6522L33.1141 38.7998L33.8094 39.0895L34.7141 39.0656L36.4579 39.4509L36.7782 39.3862L37.4704 39.7547L37.9 39.7195C37.9 39.7195 37.961 39.7912 38.0282 39.8137L37.9391 40.1583L38.061 40.3045L38.4016 40.3397L39.0735 40.8431L39.486 40.6519L39.225 35.7075L39.4625 35.3109L39.4594 33.8498L38.7188 31.9373L38.7 28.44L38.5 28.2319L38.4407 29.9953L38.1547 27.0169L37.8188 26.5373L37.8172 25.8694L37.7297 25.8272C37.7313 25.6936 37.8141 25.3027 37.8141 25.3027L37.6797 25.148L37.9032 23.1764C37.9032 23.1764 38.2766 23.0512 38.6016 22.3256C38.8797 21.7055 39.1516 21.4931 39.5719 21.1739C39.8407 20.97 40.0704 20.7211 40.3469 20.5284C40.6594 20.3119 40.7375 20.0658 41.3375 19.942C41.8344 19.8394 42.2032 19.357 42.2032 19.357L42.3813 19.5412L42.7954 18.4444L43.0844 18.3558L43.4922 15.4687L43.7204 19.0477L43.9141 19.0744L44.1016 17.8256L44.3547 20.0995L44.5094 20.1502L44.5625 19.4611L44.7672 19.2234L44.9141 17.7736L45.0875 19.7733L45.186 20.0531L45.2844 19.7367L45.4 20.7717L45.7891 20.9827L45.7938 21.3947L46.1829 21.9347C46.1829 21.9347 46.2407 22.583 46.2313 22.7531C46.2235 22.9219 46.2125 23.258 46.2125 23.258L46.35 23.8078L46.125 24.1566L46.1141 24.3703L46.2047 24.4378L46.2219 26.4023L45.9907 27.4022L46.086 27.9464L45.6829 34.5009L45.6063 29.6648L45.3313 30.7758L45.3125 35.5711L45.6719 36.6412L45.6969 41.985C45.6969 41.985 45.9079 41.8908 46.1938 41.8908C46.2079 41.8908 46.2219 41.8908 46.236 41.8908C46.6766 41.9048 47.05 42.2241 47.6985 42.3239C47.9094 42.4575 48.2141 42.7739 48.4485 42.8737C48.5141 42.9019 48.9579 42.982 48.9579 42.982L49.4125 43.3589C49.4829 43.3533 49.5485 43.3505 49.611 43.3505C49.9391 43.3505 50.1891 43.4222 50.4422 43.5347C51.0157 43.6683 51.5016 43.8975 51.8204 44.3489C52.0375 44.6569 52.3329 44.8369 52.5422 44.9452C52.7 45.0267 53.2766 45.0366 53.5485 45.0366C53.636 45.0366 53.6922 45.0352 53.6922 45.0352L53.6797 39.9544L53.1922 38.2922L53.15 34.56L53.6813 33.6122L53.6344 30.4594L53.4797 29.9939L53.4891 28.8717L53.3563 29.0222C53.3563 29.0222 53.261 32.5266 53.2157 33.7528C53.1954 33.7528 52.836 27.3277 52.836 27.3277L52.5094 26.7314C52.5094 26.7314 52.8125 25.9875 52.8125 25.8637C52.8125 25.5614 52.6829 25.4208 52.6829 25.4208L52.6391 24.307C52.6391 24.307 52.8891 23.8289 52.9969 23.227C53.0719 22.8122 53.075 22.3158 53.075 22.3158L53.9954 21.3173L54.0188 20.572L54.3985 20.1769L54.5907 16.927L54.7875 19.3739L55.186 20.6845L55.3782 20.5003V19.6495L55.5907 19.987L55.6657 18.5752L55.7563 19.8211L56.075 20.3484L56.5063 20.2472L57.4391 20.738L57.786 20.7281L57.9735 20.1291L58.175 21.0586L58.4829 21.247L58.5891 21.5578C58.5891 21.5578 59.0204 21.7912 59.1016 21.8686C59.3141 22.1512 59.7172 23.1497 59.7172 23.1497L59.8204 24.3056C59.1532 25.5797 59.0813 26.2055 59.0829 26.9775C59.086 27.8873 58.9032 29.8898 58.9032 29.8898L59.3063 31.5506L59.0172 42.0103L58.7797 42.9877C58.7797 42.9877 58.7735 37.9955 58.7735 35.7511L58.6907 35.6147L58.3704 36.9422L58.3625 43.8356L58.1969 45.1041L58.1766 46.3852C58.1766 46.3852 58.3782 46.5272 58.6719 46.5834C59.1672 46.9308 59.736 47.077 60.3625 47.077C60.5797 47.077 60.8032 47.0588 61.0344 47.0264C61.0954 47.018 61.1594 47.0236 61.2219 47.0194C61.2454 47.018 61.2688 47.018 61.2922 47.018C61.5938 47.018 61.8125 47.1403 61.925 47.4187C62.036 47.693 62.2469 47.7703 62.5641 47.7844C62.9282 47.8012 63.086 47.7661 63.4454 47.8392C63.6875 47.887 63.7235 48.1303 64.3688 48.1303C64.786 48.1472 65.1266 48.3033 65.4657 48.5016C65.7235 48.652 66.3485 48.915 66.3485 48.915L66.2375 45.2011L66.3141 41.7755L66.111 40.9725L66 40.8516L65.7657 43.2661L65.225 40.0008L65.1985 36.1336L65.5188 35.1253L65.5204 33.5869L65.261 32.4309L65.2954 31.9725L65.136 31.8909L65.1266 31.5942L65.0532 31.4859L65.5172 29.3428L66.1563 28.8366L66.6782 27.6455L66.8047 28.0955L66.9344 28.17L67.1297 25.2717L67.5313 27.4866L67.825 27.7144L68.0563 27.6173L68.3704 23.7319L68.6235 27.3361L68.7969 25.8764L68.9313 27.6258L69.086 27.4458L69.2157 27.6652L69.3844 27.6736L69.5016 27.8578L69.7829 27.8452C70.0235 28.0645 70.3735 28.1348 70.5235 28.2291C70.7625 28.3795 71.0907 28.4231 71.0907 28.4231C71.0907 28.4231 71.5657 29.077 71.7797 29.5256C71.95 29.8814 72.1969 30.6323 72.1969 30.6323L72.1344 31.8825L72.2938 32.3339L71.8891 33.3169L72.361 33.9356L71.7844 45.5611L71.5579 37.935L71.4282 38.3864L71.4438 40.4859L70.9282 41.5505C70.9282 41.5505 70.9032 45.1167 70.925 46.7367C70.9329 47.2964 70.9 47.6128 70.9 47.6128L70.3235 48.8939L70.3141 49.7531L70.7594 49.9725C70.986 49.9373 71.2188 49.9177 71.4516 49.9177C71.95 49.9177 72.4454 50.0119 72.8735 50.265C73.1047 50.4014 73.4016 50.4576 73.6766 50.5223C73.8266 50.5589 73.9047 50.5673 73.9672 50.5673C74.0235 50.5673 74.0688 50.5603 74.1438 50.5603C74.1969 50.5603 74.2641 50.5631 74.3625 50.5758C74.4813 50.5898 74.8719 50.7966 75.0532 50.7966C75.075 50.7966 75.0954 50.7938 75.1094 50.7867C75.25 50.7192 75.3797 50.3789 75.5844 50.3466C75.5938 50.3451 75.6047 50.3437 75.6157 50.3437C75.811 50.3437 76.0079 50.632 76.0094 50.7614C76.011 50.888 76.0219 51.1186 76.0219 51.1186C76.0219 51.1186 76.5172 51.3689 76.7594 51.3689C76.761 51.3689 76.7641 51.3689 76.7657 51.3689C77.8047 51.3689 78.3516 51.7148 79.2313 51.8639C79.8688 51.9722 80.15 52.0045 80.775 52.1592C80.9969 52.2141 81.3985 52.2492 81.6094 52.418C81.6969 52.4883 81.6672 52.6683 82.1204 52.785C82.3672 52.8483 83.0969 52.8427 83.5641 53.0901C84.361 53.5134 84.9297 53.6737 85.4922 53.6737C85.5594 53.6737 85.6266 53.6709 85.6938 53.6667C85.7297 53.6639 85.7657 53.6625 85.8032 53.6625C86.0032 53.6625 86.2219 53.6977 86.375 53.7891C86.9579 54.1392 87.5969 54.2897 88.275 54.3558C88.4266 54.3712 88.6469 54.4753 88.7954 54.5133C88.7938 54.5344 88.5391 54.6483 88.2563 54.6483C88.2532 54.6483 88.25 54.6483 88.2485 54.6483C88.0407 54.6469 87.8157 54.5316 87.686 54.5316C87.6844 54.5316 87.6829 54.5316 87.6813 54.5316C87.5969 54.533 87.5235 54.5344 87.461 54.5344C86.9813 54.5344 87.0157 54.4781 86.5969 54.3994C86.5454 54.3895 86.5032 54.3853 86.4672 54.3853C86.3235 54.3853 86.2797 54.4613 86.1485 54.6047C86.0047 54.7622 85.7829 54.8916 85.5875 54.8916C85.5641 54.8916 85.5422 54.8902 85.5188 54.8859C85.2813 54.8451 85.0797 54.6145 84.6672 54.5611C83.7047 54.4359 83.9094 54.2264 83.1219 53.9564C82.9157 53.8861 82.3219 53.8355 82.0985 53.8228C81.2094 53.8228 81.5704 53.4769 81.0563 53.4417C80.5438 53.4066 80.5297 53.1127 80.3188 53.0494C80.2813 53.0381 80.25 53.0339 80.2188 53.0339C80.1172 53.0339 80.0188 53.0775 79.725 53.0775C79.6829 53.0775 79.636 53.0761 79.586 53.0747C79.5719 53.0747 79.5579 53.0747 79.5438 53.0747C79.5157 53.0747 79.486 53.0747 79.4547 53.0747C79.3688 53.0747 79.2782 53.0691 79.225 53.0297C78.4719 52.4784 77.5375 52.6092 76.6813 52.4517C75.8188 52.4123 75.6204 52.1986 75.1657 52.1817C75.1579 52.1817 75.1516 52.1817 75.1438 52.1817C74.8204 52.1817 74.2625 52.4292 74.2625 52.4292C74.2625 52.4292 74.236 52.6697 74.2719 52.7681C74.3891 53.093 74.6829 53.2659 75.1188 53.2659C75.2016 53.2659 75.2891 53.2603 75.3813 53.2477C75.5157 53.2294 75.6469 53.2083 75.7688 53.2083C75.975 53.2083 76.1579 53.2673 76.2891 53.5022C76.3063 53.5331 76.3735 53.5528 76.4204 53.557C76.4829 53.5669 76.5516 53.5697 76.6188 53.5697C76.6672 53.5697 76.7157 53.5683 76.7641 53.5683C76.8297 53.5683 76.8922 53.5697 76.95 53.5795C77.1422 53.6133 77.2907 53.7047 77.4657 53.737C81.1625 54.405 81.161 54.7594 81.9704 54.7594C82.436 54.7594 82.5922 54.803 83.2985 54.803C83.4 54.803 83.5813 55.1883 84.8438 55.4527C85.1469 55.5427 85.261 55.6101 86.3579 55.6101C86.5985 55.6101 87.4641 56.1052 87.9 56.122C87.9079 56.122 87.9172 56.122 87.9266 56.122C88.0375 56.122 88.2391 56.0981 88.2438 55.9701C88.2469 55.8562 88.1172 55.7437 88.0172 55.7016C87.7813 55.6017 87.5204 55.5511 87.2766 55.4681C87.15 55.4245 87.0282 55.3641 86.9219 55.2895C86.8782 55.2586 86.8391 55.2108 86.8625 55.1109C86.8719 55.0687 86.9141 55.0575 86.9594 55.0575C87.0219 55.0575 87.0907 55.08 87.0907 55.08C87.0907 55.08 87.5 55.4048 88.5782 55.5525C88.8735 55.665 89.6063 56.1375 89.9125 56.2233C89.9329 56.2233 89.9532 56.2233 89.9735 56.2233C90.7407 56.2233 90.9907 56.333 91.1829 56.4806C91.286 56.5594 91.3875 56.5861 91.5985 56.6212C91.65 56.6297 91.7125 56.6325 91.7797 56.6325C91.9282 56.6325 92.1 56.6184 92.225 56.6184C92.3407 56.6184 92.4172 56.6311 92.4032 56.6761C92.3797 56.8491 92.2829 56.9616 92.0938 56.9616ZM92.0688 55.7986C91.8172 55.7986 91.586 55.6608 91.261 55.4512C91.2329 55.433 91.2157 55.3908 91.2157 55.3908C91.7766 55.4119 92.1297 55.5806 92.5204 55.665C92.3516 55.7578 92.2063 55.7986 92.0688 55.7986ZM96.4579 57.9628C96.4532 57.9628 96.4485 57.9628 96.4422 57.9614C96.3735 57.9544 96.3047 57.8559 96.2 57.8559C96.1985 57.8559 96.1985 57.8559 96.1969 57.8559C96.0172 57.8601 95.7985 57.96 95.7532 57.96C95.7516 57.96 95.7485 57.96 95.7469 57.9586C95.4282 57.8306 94.9 57.6577 94.5266 57.6267C94.4735 57.6225 94.3516 57.6225 94.2922 57.6014C94.1719 57.5592 94.1266 57.3933 94.0063 57.3314C93.8047 57.2287 93.6172 57.1978 93.586 57.1162C93.4391 56.7337 93.2313 56.6902 92.8985 56.6128C92.8438 56.6002 92.7688 56.5425 92.7594 56.482C92.7547 56.4511 92.7704 56.3962 92.8047 56.3962C92.8579 56.3948 92.911 56.3934 92.9641 56.3934C93.6969 56.3934 94.3719 56.5523 94.9016 57.0544C94.9657 57.1148 95.1438 57.1275 95.3375 57.1275C95.4594 57.1275 95.5875 57.1233 95.6969 57.1233C95.7813 57.1233 95.8547 57.1261 95.9063 57.1359C96.1219 57.1823 96.2672 57.2442 96.6704 57.3441C96.7563 57.3652 96.8704 57.6239 96.8422 57.6492C96.7094 57.7617 96.6032 57.9628 96.4579 57.9628ZM96.7547 57.067C96.0782 57.067 94.9704 56.8266 94.9704 56.8266L94.9204 56.6986L95.4547 56.7998L95.6922 56.6283C95.6922 56.6283 96.5329 56.9391 96.875 57.0642C96.8375 57.067 96.7969 57.067 96.7547 57.067ZM39.2813 47.6325C39.3813 47.7169 39.4016 47.7591 39.4266 47.9152C39.4297 47.9334 39.3516 48.1261 39.3485 48.1472C39.3204 48.3666 39.3157 48.6731 39.0563 48.6731C39.0235 48.6731 38.9875 48.6689 38.9469 48.6577C38.7204 48.6 38.4797 48.337 38.4829 48.015C38.486 47.7661 38.6235 47.6198 38.775 47.5608C38.8204 47.5439 38.8766 47.5355 38.9375 47.5355C39.0657 47.5341 39.2079 47.5706 39.2813 47.6325ZM44.3313 49.9387L44.3641 51.3323L44.1188 51.2606L44.1079 49.7812L44.3313 49.9387ZM73.1797 52.7077C73.2 52.8244 73.161 52.9889 73.0766 53.0705C73.0422 53.1042 72.9719 53.1141 72.8954 53.1141C72.8329 53.1141 72.7657 53.107 72.711 53.1C72.2329 53.0409 71.761 52.9144 71.2766 52.9031C70.9735 52.8961 70.7157 52.8961 70.5688 52.8961C70.4829 52.8961 70.4344 52.8961 70.4344 52.8961C70.2672 52.65 70.3563 52.1803 70.3563 52.1803C70.686 52.3336 71.0141 52.3786 71.3422 52.3786C71.7094 52.3786 72.075 52.3223 72.4407 52.2956C72.486 52.2928 72.5282 52.2914 72.5688 52.2914C72.9407 52.2928 73.1313 52.4292 73.1797 52.7077ZM66.3891 51.1102C66.3922 51.1861 66.3938 51.3661 66.3813 51.4955C65.9172 51.5433 65.4563 51.5995 64.9954 51.5995C64.4907 51.5995 63.9891 51.532 63.4907 51.3141C63.4125 51.2803 63.3219 51.2677 63.2266 51.2677C63.0329 51.2677 62.8141 51.3169 62.6204 51.3408C62.425 51.3647 62.2422 51.4561 62.05 51.5011C61.9813 51.5166 61.8938 51.5306 61.7985 51.5306C61.6844 51.5306 61.5579 51.5109 61.4391 51.4547C61.4516 51.0469 61.3485 50.8767 61.2375 50.8655C61.0125 50.843 60.7266 50.7994 60.7266 50.7994L60.7766 50.317C60.4813 50.2861 60.3141 50.2256 59.75 50.2256C59.7375 50.2256 59.7266 50.2256 59.7141 50.2256C59.5282 50.0555 59.2125 49.9767 59.011 49.7348C58.7829 49.372 58.5938 49.1808 58.2579 49.0036C58.1844 48.9656 58.1375 48.8855 58.0797 48.825C58.1 48.7969 58.1204 48.7687 58.1407 48.7406C58.2407 48.7758 58.361 48.7912 58.4391 48.8503C58.5704 48.953 58.7063 49.0697 58.7844 49.2075C59.1079 49.7784 59.6235 49.9851 60.2407 49.9851C60.3297 49.9851 60.4219 49.9809 60.5157 49.9725C60.5188 49.9725 60.5204 49.9725 60.5235 49.9725C61.0516 49.9725 61.2672 49.8108 61.2672 49.8108C61.2672 49.8108 61.7532 49.8994 61.9829 49.9837C62 49.9908 62.0219 49.9936 62.0438 49.9936C62.0625 49.9936 62.0797 49.9908 62.0938 49.9837C62.2797 49.8895 62.4579 49.853 62.6313 49.853C62.9829 49.853 63.3141 50.0062 63.6516 50.1511C63.8266 50.227 64.061 50.1652 64.2485 50.2256C64.3938 50.2734 64.336 50.5125 64.6063 50.5125C64.6282 50.5125 64.6532 50.5111 64.6813 50.5069C64.6969 50.4436 64.7188 50.3522 64.7422 50.2523C64.7922 50.2566 64.8422 50.2481 64.8594 50.2664C65.0188 50.4408 65.1766 50.6152 65.3235 50.798C65.4469 50.9527 65.5797 51.0427 65.775 51.0427C65.8219 51.0427 65.8719 51.037 65.9266 51.0272C66.1016 50.9934 66.2157 50.9583 66.286 50.9583C66.3563 50.9569 66.3844 50.9948 66.3891 51.1102Z" fill="url(#paint0_linear_26_338)"/>
<path d="M26.0016 25.9495C26.0016 25.9495 26.7344 24.982 27.9547 25.0706C29.1751 25.1592 30.0297 25.3561 30.5672 25.7513C31.1047 26.1464 32.3985 27.3994 32.5204 27.8381C32.6422 28.2783 32.5938 28.8056 32.4469 29.1783C32.3001 29.5509 31.7875 29.5524 31.7875 30.1008C31.7875 30.6492 31.861 31.4634 31.861 31.4634L31.1282 31.6828L30.9079 36.1434C30.9079 36.1434 30.6876 32.2538 30.3469 31.7053C30.0063 31.1569 29.9079 31.0894 29.6141 31.3313C29.3204 31.5731 29.3204 32.9569 29.3204 32.9569C29.3204 32.9569 29.6141 31.9894 28.9297 31.4184C28.2454 30.8475 26.5375 29.7703 26.5375 29.7703L26.5125 30.2752L25.6329 29.7042C25.5844 29.2866 25.6329 29.4398 25.5844 29.2866C25.536 29.1333 25.6094 29.243 25.536 29.1333C25.4625 29.0236 25.1204 28.1447 25.1204 28.1447C25.1204 28.1447 25.511 27.5288 25.6579 27.09C25.8047 26.6513 25.8047 26.6498 25.8047 26.6498L26.0016 25.9495Z" fill="url(#paint1_linear_26_338)"/>
<path d="M28.2469 31.9261L27.8562 45.3291L27.4656 31.9922L27.075 40.9134L26.5859 31.2019C26.5859 31.2019 26.7078 30.4988 26.9281 30.4102C27.1484 30.3216 27.4656 30.5859 27.4656 30.5859C27.4656 30.5859 27.4172 30.4102 27.4172 30.6956C27.4172 30.9811 27.2219 31.3552 27.5156 31.5309C27.8094 31.7067 28.2469 31.9261 28.2469 31.9261Z" fill="url(#paint2_linear_26_338)"/>
<path d="M26.489 26.6752L30.5656 26.5866C30.5656 26.5866 30.1265 25.7077 29.3453 25.5544C28.564 25.4011 28.0921 25.2169 27.6125 25.3786C26.5625 25.7302 26.489 26.6752 26.489 26.6752Z" fill="white"/>
<path d="M29.9078 30.4327C30.1094 30.15 30.4594 30.0712 30.7922 29.9602C30.975 29.8983 31.2797 29.7998 31.4672 29.8477C31.4047 30.2414 31.3453 30.6942 30.8672 30.8602C30.6031 30.953 30.2531 30.9502 30.0188 30.7955C29.8531 30.6872 29.9078 30.6253 29.9078 30.4327Z" fill="white"/>
<path d="M40.8203 22.3242C40.861 22.0373 40.5282 21.8616 40.2344 21.9263C39.936 21.9909 39.7422 22.3945 39.5532 22.5858C39.0094 23.1356 38.0953 23.9766 38.3891 24.7823C38.8 24.3169 39.1453 23.9414 39.8438 23.8205C40.4641 23.7136 41.3078 23.5294 41.4953 24.1791C41.5922 24.5138 41.5266 24.9792 41.5532 25.3252C41.6703 26.9128 41.8829 28.5089 42.0391 30.0966C42.2985 32.7305 42.8719 35.3461 42.7375 37.9955C42.7047 38.6283 42.6782 39.3961 42.6782 39.9614C42.6782 36.6708 42.5079 33.4111 42.6407 30.1177C42.7047 28.523 42.7797 26.9466 42.7282 25.3533C42.7047 24.6291 42.6407 23.0541 43.4172 22.6434C44.0672 22.9373 44.5766 23.1342 44.6828 23.8542C44.7797 24.5053 44.7282 25.4363 45.2203 25.9411C45.5969 25.1958 45.3657 24.0427 45.3657 23.213C45.3657 22.7208 45.4594 22.1611 45.1735 21.7449C44.5625 20.8575 43.4594 20.4806 42.3875 20.3358C41.8672 20.2655 41.5719 20.2795 41.1672 20.5748C40.9328 20.745 40.15 21.1275 40.3828 21.4369C40.5532 21.6633 41.3485 21.6155 41.6063 21.7406C41.9782 21.9192 42.4344 22.5436 42.4328 22.9388C42.4313 23.947 40.6532 23.2327 40.95 22.3172C40.8719 22.2989 40.8235 22.3031 40.8203 22.3242Z" fill="url(#paint3_linear_26_338)"/>
<path d="M42.9687 21.5339C42.3015 21.7055 41.2422 20.6381 42.5297 20.7422C43.1984 20.797 43.9812 20.9925 44.3609 21.5423C44.1328 21.9459 43.2437 21.638 42.8578 21.5859C42.8468 21.5227 42.8843 21.5634 42.9687 21.5339Z" fill="white"/>
<path d="M52.9781 26.7188C53.0843 26.0817 52.9406 25.8202 53.6921 25.6345C53.6203 25.4405 53.6109 25.2408 53.564 25.0481C53.4906 24.743 53.314 24.5475 53.2078 24.2564C53.0906 23.9344 53.1828 23.5097 53.2812 23.2031C53.6531 22.0598 54.3937 21.7378 55.5218 21.3117C56.6656 20.88 57.6812 21.51 58.5078 22.2033C59.0437 22.6547 59.339 23.3452 59.3249 23.9948C59.3171 24.3267 59.3515 24.2887 59.0718 24.5756C58.8109 24.8442 58.2546 25.0734 58.0515 25.3209C57.8671 25.5445 57.7406 26.2195 57.7734 26.5078C57.8374 27.0591 58.489 26.9311 58.4874 27.4697C58.4859 28.2656 57.4843 28.7198 57.4718 29.5341C57.4531 30.645 57.339 31.7602 57.2859 32.8683C57.2343 33.9441 57.1781 35.0058 57.1781 36.0872C57.1781 36.9464 57.5093 38.333 57.0828 39.1134C56.6031 38.4314 57.0406 37.0912 56.7781 36.3052C56.414 36.8831 56.6421 37.7198 56.6031 38.3527C56.5578 39.0797 56.5171 39.8025 56.4937 40.5295C56.4609 41.5336 56.6624 43.0664 56.2109 43.9903C55.6984 43.4841 55.8343 42.6952 55.9062 42.075C56.0093 41.1933 56.0125 40.3088 56.0531 39.4242C56.0937 38.5495 56.1031 37.6805 56.1031 36.803C56.1031 35.2519 56.1015 33.7092 56.0156 32.1638C55.9812 31.5309 55.9124 30.8517 55.9156 30.2245C55.9171 29.932 56.1296 29.3878 55.9187 29.1305C55.7499 28.9238 55.539 29.0419 55.2718 28.9688C54.9265 28.8745 54.5234 28.5891 54.2937 28.343C53.8734 29.0981 54.0937 30.458 54.1015 31.3045C54.0406 30.2597 54.089 29.0559 53.7687 28.042C53.614 27.5541 53.2656 27.0759 52.9609 26.6259C52.9312 26.6695 52.9374 26.6695 52.9781 26.7188Z" fill="url(#paint4_linear_26_338)"/>
<path d="M54.1014 27.0703C53.8249 26.9381 53.4061 26.5303 53.7592 26.2884C54.0217 26.1084 54.5249 26.3813 54.7968 26.4431C55.403 26.5809 56.3171 26.512 56.8358 26.8158C57.0436 26.9367 57.6171 27.5105 57.5702 27.7312C57.4264 28.4048 56.4843 27.5512 56.2374 27.3572C55.4561 26.7427 55.0389 26.9466 54.1358 27.1589C54.128 27.0998 54.0186 27.0998 54.1014 27.0703Z" fill="white"/>
<path d="M54.7845 28.0378C54.8001 28.0209 55.0923 27.4275 55.372 27.5091C55.6563 27.5906 55.6188 27.9731 55.6157 28.1686C55.597 29.1333 54.4845 28.3486 54.7845 28.0378Z" fill="white"/>
<path d="M54.1501 22.7644C54.5329 22.0402 55.7719 21.6422 56.6297 21.7069C56.9141 21.728 58.8188 22.4002 58.1548 22.6237C57.9719 22.6856 57.4532 22.365 57.2266 22.365C56.8751 22.365 56.5735 22.5787 56.2516 22.6758C55.6016 22.8727 54.8032 22.7278 54.1547 22.7391C54.2297 22.6828 54.0657 22.808 54.1501 22.7644Z" fill="white"/>
<path d="M65.478 30.7181C65.6187 30.2541 65.6015 29.9011 66.0562 29.4623C66.4233 29.108 66.628 28.8703 66.9062 28.4864C67.4327 27.7552 68.814 27.9534 69.5812 28.2909C70.0312 28.4878 70.3062 29.0025 70.6515 29.4089C70.9483 29.7591 71.5155 30.3187 71.4843 30.8053C71.4671 31.0809 71.2155 31.3284 71.1296 31.5956C71.0218 31.9289 71.053 32.2537 71.0327 32.5983C70.9843 33.4617 70.9437 34.3266 70.9562 35.1928C70.9671 35.9001 70.8655 36.6005 70.8374 37.305C70.5062 36.2475 70.7937 35.0466 70.614 33.9623C70.5358 33.4912 70.4546 33.03 70.4108 32.5547C70.3843 32.2762 70.428 31.7939 70.2515 31.552C70.0843 31.3214 69.8343 31.2216 69.5874 31.3889C69.278 31.5984 69.7093 31.7208 69.1874 31.7391C68.8999 31.7489 68.5546 31.5717 68.2608 31.5619C67.9874 31.552 67.7187 31.6111 67.4374 31.59C67.3265 31.0852 67.653 30.9403 68.114 30.8925C68.7749 30.8222 68.7515 30.6661 68.4624 30.1514C67.5921 30.4608 68.3358 28.9252 67.1858 29.257C66.778 29.3752 66.1265 29.9405 66.1577 30.3567C66.1905 30.7997 66.7999 30.5423 67.1671 30.6C67.0796 31.05 66.9468 31.4677 66.9046 31.9303C66.8608 32.4098 66.9765 33.0736 66.7858 33.5222C66.5562 32.9147 66.9202 31.8516 66.4671 31.3256C66.2437 31.0655 65.7702 31.1147 65.5827 30.7673C65.6843 30.645 65.8187 30.5353 65.964 30.4537" fill="url(#paint5_linear_26_338)"/>
<path d="M69.2875 30.4102C69.2031 30.0642 68.8438 29.2261 69.4828 29.2331C69.7891 29.2373 70.3578 29.7295 70.5594 29.9264C71.4109 30.7533 69.85 30.8897 69.2844 30.4144C69.3016 30.3455 69.2047 30.4327 69.2875 30.4102Z" fill="white"/>
<path d="M67.2844 33.6628C67.2015 32.9977 67.8953 32.6517 68.5297 32.7952C69.0125 32.9048 69.0984 33.0117 68.9937 33.4533C68.8812 33.9328 68.6594 34.3406 68.6781 34.8483C68.4922 34.5839 68.4437 34.2337 68.3484 33.9272C67.9031 34.1789 68.114 35.4909 68.114 35.9142C68.1125 37.208 68.1625 38.5045 68.1625 39.8011C68.1625 41.1694 68.2328 42.5377 68.164 43.9017C68.1312 44.543 68.3703 45.8381 68.0219 46.4428C67.5234 45.7931 67.7719 44.7173 67.7719 43.9397C67.7719 42.9891 67.75 42.0384 67.7453 41.0892C67.739 40.0106 67.7844 38.9109 67.7234 37.8295C67.675 36.9605 67.6297 36.0886 67.5765 35.2125C67.5562 34.8427 66.9844 33.8906 67.2844 33.6628Z" fill="url(#paint6_linear_26_338)"/>
<path d="M67.4312 28.6088C67.9406 28.3261 68.5312 28.2403 69.0796 28.4456C68.6718 29.0714 67.9984 28.9153 67.3718 28.7522C67.4234 28.6495 67.3203 28.6706 67.4312 28.6088Z" fill="white"/>
</g>
<defs>
<linearGradient id="paint0_linear_26_338" x1="50.0047" y1="11.0194" x2="50.0047" y2="79.2267" gradientUnits="userSpaceOnUse">
<stop stop-color="#1A6DFF"/>
<stop offset="1" stop-color="#C822FF"/>
</linearGradient>
<linearGradient id="paint1_linear_26_338" x1="28.8235" y1="19.4513" x2="28.8931" y2="43.4026" gradientUnits="userSpaceOnUse">
<stop stop-color="#6DC7FF"/>
<stop offset="1" stop-color="#E6ABFF"/>
</linearGradient>
<linearGradient id="paint2_linear_26_338" x1="27.3734" y1="19.4555" x2="27.443" y2="43.4068" gradientUnits="userSpaceOnUse">
<stop stop-color="#6DC7FF"/>
<stop offset="1" stop-color="#E6ABFF"/>
</linearGradient>
<linearGradient id="paint3_linear_26_338" x1="41.8625" y1="19.4133" x2="41.9334" y2="43.3646" gradientUnits="userSpaceOnUse">
<stop stop-color="#6DC7FF"/>
<stop offset="1" stop-color="#E6ABFF"/>
</linearGradient>
<linearGradient id="paint4_linear_26_338" x1="56.1124" y1="19.3725" x2="56.1821" y2="43.3238" gradientUnits="userSpaceOnUse">
<stop stop-color="#6DC7FF"/>
<stop offset="1" stop-color="#E6ABFF"/>
</linearGradient>
<linearGradient id="paint5_linear_26_338" x1="68.4421" y1="19.3359" x2="68.5117" y2="43.2872" gradientUnits="userSpaceOnUse">
<stop stop-color="#6DC7FF"/>
<stop offset="1" stop-color="#E6ABFF"/>
</linearGradient>
<linearGradient id="paint6_linear_26_338" x1="68.0656" y1="19.3373" x2="68.1352" y2="43.2886" gradientUnits="userSpaceOnUse">
<stop stop-color="#6DC7FF"/>
<stop offset="1" stop-color="#E6ABFF"/>
</linearGradient>
<clipPath id="clip0_26_338">
<rect width="100" height="90" fill="white"/>
</clipPath>
</defs>
</svg>
