<svg width="100" height="90" viewBox="0 0 100 90" fill="none" xmlns="http://www.w3.org/2000/svg">
<path d="M50 31.875C47.1458 31.875 44.4167 32.4 41.9375 33.3375L41.8313 35.7244L43.5208 36.8062C45.5208 36.0375 47.7083 35.625 50 35.625C59.1875 35.625 66.6667 42.3563 66.6667 50.625C66.6667 58.8937 59.1875 65.625 50 65.625C44 65.625 38.75 62.7563 35.7917 58.4625L32.6875 61.05C36.4375 66.0563 42.7917 69.375 50 69.375C61.4792 69.375 70.8333 60.9563 70.8333 50.625C70.8333 40.2937 61.4792 31.875 50 31.875Z" fill="#FFE082"/>
<path d="M57 42.3188C52.7083 42.8625 48.7083 45.1125 46.3958 48.75C46.2292 49.0125 46.0833 49.2563 45.9375 49.5188L43.8042 49.0463L42.5625 47.25C42.625 47.1188 42.7083 47.0063 42.7917 46.875C45.6042 42.4688 50.3125 39.6375 55.4792 38.7563L57.5229 40.6088L57 42.3188Z" fill="#FFCA28"/>
<path d="M40.9792 72.1875C30.6397 72.1875 22.2292 64.6163 22.2292 55.3125H26.3959C26.3959 62.55 32.9397 68.4375 40.9792 68.4375C49.0188 68.4375 55.5626 62.55 55.5626 55.3125H59.7292C59.7292 64.6163 51.3188 72.1875 40.9792 72.1875Z" fill="#FFCA28"/>
<path d="M52.0834 13.125H47.9167V86.25H52.0834V13.125Z" fill="#FFB300"/>
<path d="M49.9999 88.125C29.4124 88.125 13.9166 76.9294 13.2666 76.4531L15.8979 73.545C16.0458 73.6537 30.9354 84.375 49.9999 84.375C69.1208 84.375 83.952 73.6556 84.0999 73.5469L86.7333 76.4531C86.0833 76.9294 70.5874 88.125 49.9999 88.125Z" fill="#FFCA28"/>
<path d="M59.7292 55.3125H55.5626C55.5626 48.075 49.0188 42.1875 40.9792 42.1875C32.9397 42.1875 26.3959 48.075 26.3959 55.3125L24.3647 56.1506L22.2292 55.3125C22.2292 46.0087 30.6397 38.4375 40.9792 38.4375C51.3188 38.4375 59.7292 46.0087 59.7292 55.3125Z" fill="#FFCA28"/>
<path d="M50 58.125C39.6604 58.125 31.25 50.5537 31.25 41.25C31.25 31.9462 39.6604 24.375 50 24.375C60.3396 24.375 68.75 31.9462 68.75 41.25C68.75 50.5537 60.3396 58.125 50 58.125ZM50 28.125C41.9604 28.125 35.4167 34.0125 35.4167 41.25C35.4167 48.4875 41.9604 54.375 50 54.375C58.0396 54.375 64.5833 48.4875 64.5833 41.25C64.5833 34.0125 58.0396 28.125 50 28.125Z" fill="#FFCA28"/>
<path d="M67.8332 65.7562C63.2916 68.85 56.9582 69.3938 51.7291 66.675C48.3541 64.9313 45.9374 62.1 44.9374 58.7062C43.9999 55.6125 44.3541 52.3687 45.9374 49.5187L42.5624 47.25C40.2291 51.075 39.6457 55.4625 40.9166 59.6812C42.2082 64.0312 45.3124 67.6688 49.6457 69.9188C52.5832 71.4563 55.8124 72.1875 58.9791 72.1875C62.7082 72.1875 66.3749 71.1937 69.479 69.3L67.8332 65.7562Z" fill="#FFCA28"/>
<path d="M50 13.125C39.45 13.125 31.0958 11.2725 30.7458 11.1937L31.7542 7.55624C31.8354 7.57499 39.9854 9.37499 50 9.37499C60.0146 9.37499 68.1646 7.57499 68.2458 7.55624L69.2542 11.1937C68.9042 11.2725 60.55 13.125 50 13.125Z" fill="#FFCA28"/>
<path d="M45.8333 13.125L47.9166 15H52.0062L54.1666 13.125L51.0416 3.75H48.9583L45.8333 13.125Z" fill="#FFB300"/>
<path d="M33.3334 50.625C33.3334 53.4937 34.2501 56.175 35.7917 58.4625L34.923 60.4144L32.6876 61.05C30.4584 58.0687 29.1667 54.4875 29.1667 50.625C29.1667 42.8625 34.4376 36.1875 41.9376 33.3375L43.5209 36.8062C37.5417 39.0937 33.3334 44.4187 33.3334 50.625Z" fill="#FFE082"/>
<path d="M75.2501 63.75C73.7709 66.0563 71.7917 67.9125 69.4792 69.3L68.1147 67.905L67.8334 65.7563C69.3334 64.7438 70.6459 63.4313 71.6459 61.875C75.6667 55.6125 73.2709 47.5688 66.3126 43.95C64.0209 42.75 61.5209 42.1875 59.0417 42.1875C58.3542 42.1875 57.6668 42.225 57.0001 42.3188L55.4792 38.7563C59.7501 38.0063 64.3334 38.5875 68.3959 40.7063C77.3543 45.3563 80.4376 55.6875 75.2501 63.75Z" fill="#FFCA28"/>
</svg>
