<svg width="25" height="23" viewBox="0 0 25 23" fill="none" xmlns="http://www.w3.org/2000/svg">
<path d="M11.8801 14.375C11.673 14.375 11.4742 14.2992 11.3277 14.1644L8.78203 11.8224C8.47695 11.5417 8.47695 11.0867 8.78203 10.8061C9.08711 10.5254 9.58164 10.5254 9.88672 10.8061L11.8801 12.6399L15.443 9.36208C15.748 9.08141 16.2426 9.08141 16.5477 9.36208C16.8527 9.64276 16.8527 10.0977 16.5477 10.3784L12.4324 14.1644C12.2859 14.2992 12.0871 14.375 11.8801 14.375Z" fill="#B1F126"/>
<path d="M12.5 19.4062C7.76133 19.4062 3.90625 15.8596 3.90625 11.5C3.90625 7.14042 7.76133 3.59375 12.5 3.59375C17.2387 3.59375 21.0938 7.14042 21.0938 11.5C21.0938 15.8596 17.2387 19.4062 12.5 19.4062ZM12.5 5.03125C8.62305 5.03125 5.46875 7.9332 5.46875 11.5C5.46875 15.0668 8.62305 17.9688 12.5 17.9688C16.377 17.9688 19.5312 15.0668 19.5312 11.5C19.5312 7.9332 16.377 5.03125 12.5 5.03125Z" fill="#B1F126"/>
</svg>
