<svg width="26" height="26" viewBox="0 0 26 26" fill="none" xmlns="http://www.w3.org/2000/svg">
<g clip-path="url(#clip0_3_122)">
<path fill-rule="evenodd" clip-rule="evenodd" d="M6.6906 2.62243C7.36953 2.26077 7.62673 1.41719 7.26505 0.738264C6.90337 0.0593368 6.0598 -0.197849 5.38087 0.163824C3.4643 1.1848 1.7541 2.55298 0.337307 4.19868C-0.164578 4.78166 -0.0988399 5.66111 0.484138 6.16298C1.06712 6.66488 1.94656 6.59913 2.44846 6.01616C3.64011 4.63196 5.07858 3.4812 6.6906 2.62243ZM13 26.0002C19.154 26.0002 24.1429 21.0115 24.1429 14.8574C24.1429 8.70339 19.154 3.71456 13 3.71456C6.84599 3.71456 1.85716 8.70339 1.85716 14.8574C1.85716 21.0115 6.84599 26.0002 13 26.0002ZM18.735 0.738264C19.0966 0.0593368 19.9403 -0.197849 20.6191 0.163824C22.5357 1.1848 24.2459 2.55298 25.6627 4.19868C26.1645 4.78166 26.0988 5.66111 25.5158 6.16298C24.9329 6.66488 24.0535 6.59913 23.5515 6.01616C22.36 4.63196 20.9215 3.4812 19.3095 2.62243C18.6305 2.26077 18.3733 1.41719 18.735 0.738264ZM14.1607 9.28572C14.1607 8.64467 13.641 8.125 13 8.125C12.359 8.125 11.8393 8.64467 11.8393 9.28572V14.8571C11.8393 15.4982 12.359 16.0179 13 16.0179H17.6429C18.2839 16.0179 18.8036 15.4982 18.8036 14.8571C18.8036 14.2161 18.2839 13.6964 17.6429 13.6964H14.1607V9.28572Z" fill="#555F89"/>
</g>
<defs>
<clipPath id="clip0_3_122">
<rect width="26" height="26" fill="white"/>
</clipPath>
</defs>
</svg>
