<svg width="16" height="14" viewBox="0 0 16 14" fill="none" xmlns="http://www.w3.org/2000/svg">
<g clip-path="url(#clip0_3_77)">
<path fill-rule="evenodd" clip-rule="evenodd" d="M7.54086 1.03998H8.84288L10.6862 4.73074H5.68991L7.54086 1.03998ZM4.20879 4.73074L6.05974 1.03998H4.26882L4.25409 1.04017C3.98971 1.04693 3.73076 1.11155 3.49816 1.22881C3.26724 1.34522 3.06872 1.51028 2.91842 1.71078L0.967354 4.22724L0.964344 4.23116C0.848658 4.38344 0.764253 4.55281 0.713806 4.73074H4.20879ZM0.934153 5.98074H4.18064L6.24347 12.1411L1.0534 6.12886C1.01035 6.08155 0.970553 6.03208 0.934153 5.98074ZM5.58632 5.98074H10.7893L8.2873 13.4833C8.25047 13.4857 8.21351 13.4869 8.17646 13.4869C8.15067 13.4869 8.12491 13.4863 8.0992 13.4851L5.58632 5.98074ZM12.1945 5.98074L10.1593 12.0833L15.2995 6.12887C15.3426 6.08156 15.3824 6.03208 15.4188 5.98074H12.1945ZM15.6391 4.73074C15.5886 4.55281 15.5043 4.38344 15.3886 4.23116L15.3856 4.22724L13.4345 1.71078C13.2842 1.51027 13.0857 1.34522 12.8548 1.22881C12.6222 1.11155 12.3632 1.04693 12.0988 1.04017L12.0841 1.03998H10.3229L12.1662 4.73074H15.6391Z" fill="#7C9AD6"/>
</g>
<defs>
<clipPath id="clip0_3_77">
<rect width="15.0294" height="14" fill="white" transform="translate(0.661743)"/>
</clipPath>
</defs>
</svg>
