<svg width="28" height="25" viewBox="0 0 28 25" fill="none" xmlns="http://www.w3.org/2000/svg">
<ellipse cx="14" cy="12.5" rx="14" ry="12.5" fill="#15131D"/>
<mask id="mask0_42_463" style="mask-type:luminance" maskUnits="userSpaceOnUse" x="5" y="3" width="18" height="18">
<path d="M22.5706 3.42871H5.42773V20.5716H22.5706V3.42871Z" fill="white"/>
</mask>
<g mask="url(#mask0_42_463)">
<path d="M22.5714 6.69685C21.9286 6.9647 21.2857 7.17899 20.5357 7.23256C21.2857 6.80399 21.8214 6.10756 22.0893 5.30399C21.3929 5.73256 20.6429 6.00042 19.8393 6.16113C19.1964 5.4647 18.2857 5.03613 17.3214 5.03613C15.3929 5.03613 13.7857 6.5897 13.7857 8.57185C13.7857 8.8397 13.8393 9.10756 13.8929 9.37542C10.9464 9.2147 8.375 7.82185 6.60714 5.67899C6.28571 6.2147 6.125 6.80399 6.125 7.44685C6.125 8.67899 6.76786 9.75042 7.67857 10.3933C7.08929 10.3933 6.55357 10.2326 6.07143 9.9647V10.0183C6.07143 11.7326 7.30357 13.1254 8.91071 13.4468C8.58929 13.5004 8.32143 13.554 8 13.554C7.78571 13.554 7.57143 13.554 7.35714 13.5004C7.78571 14.8933 9.125 15.9111 10.625 15.9647C9.44643 16.929 7.89286 17.4647 6.23214 17.4647C5.96429 17.4647 5.64286 17.4647 5.375 17.4111C6.98214 18.3754 8.85714 18.9647 10.8393 18.9647C17.3214 18.9647 20.8571 13.6076 20.8571 8.94685C20.8571 8.78613 20.8571 8.62542 20.8571 8.51828C21.5 7.98256 22.0893 7.39328 22.5714 6.69685Z" fill="#757185"/>
</g>
</svg>
