<svg width="28" height="25" viewBox="0 0 28 25" fill="none" xmlns="http://www.w3.org/2000/svg">
<ellipse cx="14" cy="12.5" rx="14" ry="12.5" fill="#15131D"/>
<g clip-path="url(#clip0_42_411)">
<mask id="mask0_42_411" style="mask-type:luminance" maskUnits="userSpaceOnUse" x="5" y="4" width="18" height="18">
<path d="M22.5706 4.42871H5.42773V21.5716H22.5706V4.42871Z" fill="white"/>
</mask>
<g mask="url(#mask0_42_411)">
<path d="M13.9975 15.7147C15.4965 15.7147 16.7118 14.4995 16.7118 13.0004C16.7118 11.5014 15.4965 10.2861 13.9975 10.2861C12.4984 10.2861 11.2832 11.5014 11.2832 13.0004C11.2832 14.4995 12.4984 15.7147 13.9975 15.7147Z" fill="#757185"/>
<path d="M17.3905 4.85742H10.6048C7.98618 4.85742 5.85547 6.98882 5.85547 9.6081V16.3938C5.85547 19.0124 7.98686 21.1431 10.6061 21.1431H17.3919C20.0105 21.1431 22.1412 19.0117 22.1412 16.3925V9.60674C22.1412 6.98814 20.0098 4.85742 17.3905 4.85742ZM13.9983 17.0717C11.7529 17.0717 9.9269 15.2457 9.9269 13.0003C9.9269 10.7549 11.7529 8.92885 13.9983 8.92885C16.2437 8.92885 18.0698 10.7549 18.0698 13.0003C18.0698 15.2457 16.2437 17.0717 13.9983 17.0717ZM18.7483 8.92885C18.3738 8.92885 18.0698 8.62485 18.0698 8.25028C18.0698 7.87571 18.3738 7.57171 18.7483 7.57171C19.1229 7.57171 19.4269 7.87571 19.4269 8.25028C19.4269 8.62485 19.1229 8.92885 18.7483 8.92885Z" fill="#757185"/>
</g>
</g>
<defs>
<clipPath id="clip0_42_411">
<rect width="18" height="18" fill="white" transform="translate(5 4)"/>
</clipPath>
</defs>
</svg>
