<svg width="28" height="25" viewBox="0 0 28 25" fill="none" xmlns="http://www.w3.org/2000/svg">
<ellipse cx="14" cy="12.5" rx="14" ry="12.5" fill="#15131D"/>
<mask id="mask0_42_359" style="mask-type:luminance" maskUnits="userSpaceOnUse" x="5" y="4" width="18" height="18">
<path d="M22.5706 4.42871H5.42773V21.5716H22.5706V4.42871Z" fill="white"/>
</mask>
<g mask="url(#mask0_42_359)">
<path d="M12.4467 11.6204C12.2079 11.64 11.9852 11.7488 11.8228 11.9251C11.6604 12.1013 11.5703 12.3322 11.5703 12.5718C11.5703 12.8115 11.6604 13.0423 11.8228 13.2186C11.9852 13.3949 12.2079 13.5036 12.4467 13.5232C12.5669 13.5188 12.685 13.4907 12.7942 13.4404C12.9035 13.3901 13.0017 13.3186 13.0832 13.2302C13.1647 13.1417 13.2278 13.038 13.269 12.925C13.3102 12.812 13.3286 12.692 13.3231 12.5718C13.329 12.4516 13.3109 12.3314 13.2699 12.2182C13.2289 12.105 13.1657 12.0011 13.0842 11.9125C13.0026 11.824 12.9042 11.7526 12.7948 11.7024C12.6853 11.6523 12.567 11.6244 12.4467 11.6204ZM15.5753 11.6204C15.3838 11.6046 15.192 11.6471 15.025 11.7421C14.8579 11.8371 14.7235 11.9803 14.6392 12.153C14.5549 12.3256 14.5247 12.5197 14.5524 12.7099C14.5802 12.9 14.6647 13.0773 14.7949 13.2186C14.9251 13.36 15.0949 13.4587 15.2821 13.502C15.4693 13.5452 15.6652 13.531 15.8442 13.4611C16.0232 13.3912 16.1769 13.269 16.2853 13.1103C16.3937 12.9516 16.4517 12.764 16.4517 12.5718C16.4571 12.4519 16.4388 12.332 16.3978 12.2191C16.3567 12.1063 16.2938 12.0026 16.2125 11.9142C16.1312 11.8258 16.0333 11.7543 15.9243 11.7039C15.8153 11.6534 15.6974 11.6251 15.5774 11.6204H15.5753Z" fill="#757185"/>
<path d="M19.7429 4.42871H8.25715C8.02566 4.42927 7.79655 4.47546 7.58291 4.56463C7.36928 4.65381 7.17532 4.78422 7.01213 4.94841C6.84894 5.1126 6.71971 5.30734 6.63183 5.52151C6.54396 5.73568 6.49917 5.96507 6.50001 6.19657V17.783C6.49917 18.0145 6.54396 18.2439 6.63183 18.458C6.71971 18.6722 6.84894 18.867 7.01213 19.0312C7.17532 19.1953 7.36928 19.3258 7.58291 19.4149C7.79655 19.5041 8.02566 19.5503 8.25715 19.5509H17.9772L17.5229 17.9651L18.62 18.983L19.6572 19.943L21.5 21.5716V6.19657C21.5009 5.96507 21.4561 5.73568 21.3682 5.52151C21.2803 5.30734 21.1511 5.1126 20.9879 4.94841C20.8247 4.78422 20.6307 4.65381 20.4171 4.56463C20.2035 4.47546 19.9744 4.42927 19.7429 4.42871ZM16.4343 15.6251C16.4343 15.6251 16.1257 15.2566 15.8686 14.9287C16.4903 14.7834 17.0407 14.4229 17.4222 13.9108C17.1137 14.1161 16.7831 14.2858 16.4364 14.4166C16.0377 14.5868 15.6207 14.7104 15.1936 14.7851C14.4595 14.9203 13.7066 14.9174 12.9736 14.7766C12.5432 14.6924 12.1215 14.569 11.7136 14.408C11.3692 14.2745 11.0401 14.1042 10.7322 13.9001C11.099 14.4018 11.6295 14.7596 12.2322 14.9116C11.975 15.2373 11.6579 15.623 11.6579 15.623C11.1487 15.6367 10.644 15.5251 10.1881 15.2979C9.73221 15.0707 9.33917 14.7349 9.04358 14.3201C9.07074 12.5826 9.49204 10.874 10.2757 9.323C10.9666 8.78043 11.809 8.46593 12.6864 8.423L12.7722 8.52585C11.9474 8.72997 11.1777 9.11335 10.5179 9.64871C10.5179 9.64871 10.7064 9.54585 11.0236 9.40014C11.6404 9.11868 12.2978 8.93643 12.9714 8.86014C13.0194 8.85021 13.0682 8.84447 13.1172 8.843C13.6915 8.76816 14.2728 8.7624 14.8486 8.82585C15.754 8.92927 16.6305 9.2088 17.4286 9.64871C16.8022 9.13886 16.0748 8.76782 15.2943 8.56014L15.4143 8.423C16.2917 8.46593 17.1341 8.78043 17.825 9.323C18.6087 10.874 19.03 12.5826 19.0572 14.3201C18.7594 14.7349 18.3648 15.0706 17.9076 15.298C17.4505 15.5255 16.9447 15.6378 16.4343 15.6251Z" fill="#757185"/>
</g>
</svg>
