<svg width="28" height="27" viewBox="0 0 28 27" fill="none" xmlns="http://www.w3.org/2000/svg">
<g clip-path="url(#clip0_342_3786)">
<path fill-rule="evenodd" clip-rule="evenodd" d="M12.4989 2.00328H14.8646L18.2139 9.11267H9.13582L12.4989 2.00328ZM6.44469 9.11267L9.80778 2.00328H6.55376L6.527 2.00365C6.04664 2.01667 5.57615 2.14114 5.15352 2.36702C4.73394 2.59125 4.37324 2.9092 4.10016 3.29542L0.555166 8.1428L0.549697 8.15035C0.339502 8.44368 0.186142 8.76993 0.0944824 9.11267H6.44469ZM0.494842 11.5205H6.39354L10.1416 23.387L0.711511 11.8058C0.63328 11.7147 0.560979 11.6194 0.494842 11.5205ZM8.94759 11.5205H18.4011L13.8551 25.9724C13.7882 25.9771 13.7211 25.9794 13.6538 25.9794C13.6069 25.9794 13.5601 25.9782 13.5134 25.9759L8.94759 11.5205ZM20.9543 11.5205L17.2565 23.2757L26.596 11.8058C26.6742 11.7147 26.7466 11.6194 26.8127 11.5205H20.9543ZM27.213 9.11267C27.1213 8.76993 26.968 8.44368 26.7579 8.15035L26.7525 8.1428L23.2073 3.29542C22.9343 2.90918 22.5736 2.59125 22.154 2.36702C21.7314 2.14114 21.2609 2.01667 20.7805 2.00365L20.7537 2.00328H17.5537L20.903 9.11267H27.213Z" fill="url(#paint0_linear_342_3786)"/>
</g>
<defs>
<linearGradient id="paint0_linear_342_3786" x1="13.6537" y1="2.00328" x2="13.6537" y2="25.9794" gradientUnits="userSpaceOnUse">
<stop stop-color="#71FDEE"/>
<stop offset="0.62" stop-color="#327E99"/>
</linearGradient>
<clipPath id="clip0_342_3786">
<rect width="27.3077" height="26.9677" fill="white"/>
</clipPath>
</defs>
</svg>
