<svg width="23" height="20" viewBox="0 0 23 20" fill="none" xmlns="http://www.w3.org/2000/svg">
<g clip-path="url(#clip0_68_69)">
<path fill-rule="evenodd" clip-rule="evenodd" d="M10.232 1.48569H12.1686L14.9105 6.7582H7.47888L10.232 1.48569ZM5.27585 6.7582L8.02897 1.48569H5.36514L5.34323 1.48596C4.94999 1.49562 4.56484 1.58793 4.21886 1.75544C3.87538 1.92174 3.5801 2.15754 3.35656 2.44397L0.454521 6.03892L0.450044 6.04452C0.277972 6.26206 0.152428 6.50402 0.0773926 6.7582H5.27585ZM0.405138 8.54392H5.23398L8.30225 17.3444L0.582509 8.75552C0.518467 8.68793 0.45928 8.61726 0.405138 8.54392ZM7.3248 8.54392H15.0637L11.3422 19.2619C11.2875 19.2653 11.2325 19.267 11.1774 19.267C11.139 19.267 11.1007 19.2661 11.0625 19.2644L7.3248 8.54392ZM17.1538 8.54392L14.1267 17.2619L21.7723 8.75553C21.8363 8.68794 21.8956 8.61726 21.9497 8.54392H17.1538ZM22.2774 6.7582C22.2023 6.50402 22.0768 6.26206 21.9048 6.04452L21.9004 6.03892L18.9982 2.44397C18.7747 2.15753 18.4794 1.92174 18.136 1.75544C17.7899 1.58793 17.4048 1.49562 17.0115 1.48596L16.9896 1.48569H14.37L17.1118 6.7582H22.2774Z" fill="url(#paint0_linear_68_69)" stroke="#36A9BB" stroke-width="0.5"/>
</g>
<defs>
<linearGradient id="paint0_linear_68_69" x1="11.1774" y1="1.48569" x2="11.1774" y2="19.267" gradientUnits="userSpaceOnUse">
<stop stop-color="#005F71"/>
<stop offset="0.511667" stop-color="#00B5D7"/>
</linearGradient>
<clipPath id="clip0_68_69">
<rect width="22.3548" height="20" fill="white"/>
</clipPath>
</defs>
</svg>
