<svg width="25" height="24" viewBox="0 0 25 24" fill="none" xmlns="http://www.w3.org/2000/svg">
<path d="M2.64453 8.7C2.59766 8.7 2.54883 8.69438 2.50195 8.68313C2.1875 8.60813 1.99805 8.3025 2.07617 8.00063C2.68555 5.66063 4.13672 3.58875 6.16016 2.16938C6.42188 1.98563 6.78711 2.04 6.97852 2.29125C7.16992 2.5425 7.11328 2.89313 6.85156 3.07688C5.04883 4.34063 3.75781 6.18563 3.21289 8.2725C3.14453 8.52938 2.90625 8.7 2.64453 8.7Z" fill="#71C2FF"/>
<path d="M22.3556 8.7C22.0938 8.7 21.8536 8.52937 21.7872 8.27437C21.2442 6.18937 19.9513 4.3425 18.1485 3.07875C17.8868 2.895 17.8302 2.54437 18.0216 2.29312C18.213 2.04187 18.5802 1.9875 18.8399 2.17125C20.8634 3.59062 22.3145 5.66062 22.9239 8.0025C23.002 8.30437 22.8106 8.61 22.4981 8.685C22.4513 8.69437 22.4044 8.7 22.3556 8.7Z" fill="#71C2FF"/>
<path d="M4.74529 18.7468L4.7453 18.7468C4.38931 18.3048 4.25807 17.7338 4.40284 17.18L4.40278 17.1802L4.74529 18.7468ZM4.74529 18.7468L4.74735 18.7493M4.74529 18.7468L4.74735 18.7493M4.74735 18.7493C5.10657 19.1894 5.64288 19.4375 6.21282 19.4375H18.787C19.357 19.4375 19.8933 19.1894 20.2525 18.7493C20.6143 18.3061 20.7412 17.7313 20.5969 17.1797L18.4819 9.05793C17.7906 6.39921 15.3203 4.5625 12.4999 4.5625C9.6796 4.5625 7.20939 6.39912 6.51802 9.05774M4.74735 18.7493L6.51802 9.05774M6.51802 9.05774C6.518 9.0578 6.51798 9.05787 6.51797 9.05793M6.51802 9.05774L6.51797 9.05793M6.51797 9.05793L4.40293 17.1797L6.51797 9.05793ZM18.6508 9.03773L18.6508 9.03788L20.7661 17.1604L20.7661 17.1607C20.9167 17.7375 20.7863 18.3363 20.4001 18.8084L20.3983 18.8105C20.0142 19.2853 19.4286 19.5625 18.787 19.5625H6.21282C5.5714 19.5625 4.98534 19.2854 4.59894 18.8097C4.21334 18.3351 4.08297 17.737 4.23196 17.1599C4.23199 17.1598 4.23203 17.1596 4.23207 17.1595L6.34703 9.03803C6.34704 9.03798 6.34706 9.03793 6.34707 9.03788C7.0503 6.34122 9.57056 4.4375 12.4999 4.4375C15.4294 4.4375 17.9495 6.34131 18.6508 9.03773Z" stroke="#C5C4C7"/>
<path d="M14.2519 21.1875C14.1308 21.1875 14.0097 21.2212 13.912 21.2925C13.5194 21.5794 13.0312 21.75 12.4999 21.75C11.9687 21.75 11.4804 21.5794 11.0878 21.2925C10.9901 21.2212 10.871 21.1875 10.748 21.1875C10.1952 21.1875 9.94131 21.8681 10.3808 22.1887C10.9706 22.62 11.705 22.875 12.4999 22.875C13.2948 22.875 14.0292 22.62 14.619 22.1887C15.0585 21.8681 14.8046 21.1875 14.2519 21.1875Z" fill="#C5C4C7"/>
</svg>
