<svg width="20" height="20" viewBox="0 0 20 20" fill="none" xmlns="http://www.w3.org/2000/svg">
<path d="M8.4001 1.2C4.64854 1.2 1.6001 4.24844 1.6001 8C1.6001 11.7516 4.64854 14.8 8.4001 14.8C9.88447 14.8 11.2563 14.3219 12.3751 13.5125L17.6376 18.7625L18.7626 17.6375L13.5626 12.425C14.5845 11.2344 15.2001 9.68906 15.2001 8C15.2001 4.24844 12.1517 1.2 8.4001 1.2ZM8.4001 2C11.7188 2 14.4001 4.68125 14.4001 8C14.4001 11.3188 11.7188 14 8.4001 14C5.08135 14 2.4001 11.3188 2.4001 8C2.4001 4.68125 5.08135 2 8.4001 2Z" fill="white"/>
</svg>
